<?xml version="1.0" standalone="no"?>
<!DOCTYPE svg PUBLIC "-//W3C//DTD SVG 1.1//EN" "http://www.w3.org/Graphics/SVG/1.1/DTD/svg11.dtd">
<svg xmlns="http://www.w3.org/2000/svg">
<metadata>Shubham Ramdeo, Navneet Vyas</metadata>
<defs>
<font id="icoji" horiz-adv-x="1000" >
<font-face font-family="icoji" font-weight="400" font-stretch="normal" units-per-em="1000" ascent="850" descent="-150" />
<missing-glyph horiz-adv-x="1000" />
<glyph glyph-name="refresh" unicode="&#xe800;" d="M125 444l0-281-62 0-63 0 0-32 0-31 31 0 32 0 0-31 0-31 31 0 31 0 0-32 0-31 63 0 62 0 0 31 0 32 31 0 32 0 0 31 0 31 31 0 31 0 0 31 0 32-62 0-63 0 0 218 0 219 125 0 125 0 0 31 0 32 31 0 32 0 0 31 0 31-219 0-219 0 0-281m625 250l0-31-31 0-31 0 0-32 0-31-32 0-31 0 0-31 0-31 63 0 62 0 0-219 0-219-125 0-125 0 0-31 0-31-31 0-31 0 0-32 0-31 218 0 219 0 0 281 0 282 63 0 62 0 0 31 0 31-31 0-31 0 0 31 0 32-32 0-31 0 0 31 0 31-62 0-63 0 0-31" horiz-adv-x="1000" />

<glyph glyph-name="rook" unicode="&#xe801;" d="M0 475l0-250 63 0 62 0 0-62 0-63-62 0-63 0 0-125 0-125 500 0 500 0 0 125 0 125-62 0-63 0 0 63 0 62 63 0 62 0 0 250 0 250-125 0-125 0 0-125 0-125-62 0-63 0 0 125 0 125-125 0-125 0 0-125 0-125-62 0-63 0 0 125 0 125-125 0-125 0 0-250" horiz-adv-x="1000" />

<glyph glyph-name="save" unicode="&#xe802;" d="M63 350l0-438 437 0 438 0 0 313 0 313-32 0-31 0 0 31 0 31-31 0-31 0 0 31 0 32-32 0-31 0 0 31 0 31-31 0-31 0 0 31 0 32-313 0-312 0 0-438m375 281l0-93 31 0 31 0 0 93 0 94 63 0 62 0 0-125 0-125-219 0-218 0 0 125 0 125 125 0 125 0 0-94m375-437l0-156-313 0-312 0 0 156 0 156 312 0 313 0 0-156" horiz-adv-x="1000" />

<glyph glyph-name="search" unicode="&#xe803;" d="M563 819l0-31-32 0-31 0 0-32 0-31-31 0-31 0 0-31 0-31-32 0-31 0 0-125 0-125 31 0 32 0 0-32 0-31-32 0-31 0 0-31 0-31-31 0-31 0 0-32 0-31-32 0-31 0 0-31 0-31-31 0-31 0 0-32 0-31-32 0-31 0 0-62 0-63 63 0 62 0 0 31 0 32 31 0 32 0 0 31 0 31 31 0 31 0 0 31 0 32 31 0 32 0 0 31 0 31 31 0 31 0 0 31 0 32 31 0 32 0 0-32 0-31 125 0 125 0 0 31 0 32 31 0 31 0 0 31 0 31 31 0 32 0 0 31 0 32 31 0 31 0 0 125 0 125-31 0-31 0 0 31 0 31-32 0-31 0 0 31 0 32-31 0-31 0 0 31 0 31-125 0-125 0 0-31m250-63l0-31 31 0 31 0 0-31 0-31 31 0 32 0 0-125 0-125-32 0-31 0 0-32 0-31-31 0-31 0 0-31 0-31-125 0-125 0 0 31 0 31-32 0-31 0 0-31 0-31-31 0-31 0 0 31 0 31 31 0 31 0 0 31 0 32-31 0-31 0 0 125 0 125 31 0 31 0 0 31 0 31 31 0 32 0 0 31 0 32 125 0 125 0 0-32" horiz-adv-x="1000" />

<glyph glyph-name="setting" unicode="&#xe804;" d="M625 600l0-62-250 0-250 0 0-32 0-31 250 0 250 0 0-62 0-63 63 0 62 0 0 63 0 62 63 0 62 0 0 31 0 32-62 0-63 0 0 62 0 63-62 0-63 0 0-63m-375-312l0-63-62 0-63 0 0-31 0-31 63 0 62 0 0-63 0-62 63 0 62 0 0 62 0 63 250 0 250 0 0 31 0 31-250 0-250 0 0 63 0 62-62 0-63 0 0-62" horiz-adv-x="1000" />

<glyph glyph-name="share" unicode="&#xe805;" d="M625 725l0-62 63 0 62 0 0-32 0-31-31 0-31 0 0-31 0-31-32 0-31 0 0-32 0-31-31 0-31 0 0-31 0-31-32 0-31 0 0-32 0-31 31 0 32 0 0 31 0 32 31 0 31 0 0 31 0 31 31 0 32 0 0 31 0 32 31 0 31 0 0 31 0 31 31 0 32 0 0-62 0-63 62 0 63 0 0 156 0 157-157 0-156 0 0-63m-500-375l0-375 375 0 375 0 0 156 0 157-31 0-31 0 0-125 0-125-313 0-312 0 0 312 0 313 125 0 125 0 0 31 0 31-157 0-156 0 0-375" horiz-adv-x="1000" />

<glyph glyph-name="slide" unicode="&#xe806;" d="M188 350l0-250 312 0 313 0 0 250 0 250-313 0-312 0 0-250m562-31l0-156-250 0-250 0 0 156 0 156 250 0 250 0 0-156" horiz-adv-x="1000" />

<glyph glyph-name="sound" unicode="&#xe807;" d="M688 694l0-31 31 0 31 0 0-32 0-31 31 0 32 0 0-31 0-31 31 0 31 0 0-219 0-219-31 0-31 0 0-31 0-31-32 0-31 0 0-32 0-31-31 0-31 0 0-31 0-32 31 0 31 0 0 32 0 31 31 0 32 0 0 31 0 32 31 0 31 0 0 31 0 31 31 0 32 0 0 219 0 219-32 0-31 0 0 31 0 31-31 0-31 0 0 31 0 32-32 0-31 0 0 31 0 31-31 0-31 0 0-31m-250-63l0-31-32 0-31 0 0-31 0-31-31 0-31 0 0-32 0-31-32 0-31 0 0-31 0-31-94 0-93 0 0-94 0-94 93 0 94 0 0-31 0-31 31 0 32 0 0-32 0-31 31 0 31 0 0-31 0-31 31 0 32 0 0-32 0-31 31 0 31 0 0 344 0 344-31 0-31 0 0-32m187-62l0-31 31 0 32 0 0-32 0-31 31 0 31 0 0-156 0-156-31 0-31 0 0-32 0-31-32 0-31 0 0-31 0-31 31 0 32 0 0 31 0 31 31 0 31 0 0 31 0 32 31 0 32 0 0 156 0 156-32 0-31 0 0 31 0 32-31 0-31 0 0 31 0 31-32 0-31 0 0-31m-62-125l0-31 31 0 31 0 0-94 0-94-31 0-31 0 0-31 0-31 31 0 31 0 0 31 0 31 31 0 32 0 0 94 0 94-32 0-31 0 0 31 0 31-31 0-31 0 0-31" horiz-adv-x="1000" />

<glyph glyph-name="stop" unicode="&#xe808;" d="M188 350l0-312 312 0 313 0 0 312 0 313-313 0-312 0 0-313" horiz-adv-x="1000" />

<glyph glyph-name="tablet" unicode="&#xe809;" d="M188 350l0-375 312 0 313 0 0 375 0 375-313 0-312 0 0-375m562 31l0-281-250 0-250 0 0 281 0 282 250 0 250 0 0-282" horiz-adv-x="1000" />

<glyph glyph-name="tag" unicode="&#xe80a;" d="M188 506l0-156 31 0 31 0 0-31 0-31 31 0 32 0 0-32 0-31 31 0 31 0 0-31 0-31 31 0 32 0 0-32 0-31 31 0 31 0 0-31 0-31 31 0 32 0 0-32 0-31 31 0 31 0 0 31 0 32 31 0 32 0 0 31 0 31 31 0 31 0 0 31 0 32 31 0 32 0 0 31 0 31 31 0 31 0 0 31 0 32-31 0-31 0 0 31 0 31-32 0-31 0 0 31 0 32-31 0-31 0 0 31 0 31-32 0-31 0 0 31 0 32-31 0-31 0 0 31 0 31-32 0-31 0 0 31 0 32-156 0-156 0 0-157m312 63l0-31 31 0 32 0 0-32 0-31 31 0 31 0 0-31 0-31 31 0 32 0 0-32 0-31 31 0 31 0 0-31 0-31 31 0 32 0 0-32 0-31-32 0-31 0 0-31 0-31-31 0-31 0 0-32 0-31-32 0-31 0 0-31 0-31-31 0-31 0 0 31 0 31-32 0-31 0 0 31 0 32-31 0-31 0 0 31 0 31-32 0-31 0 0 31 0 32-31 0-31 0 0 31 0 31-32 0-31 0 0 125 0 125 125 0 125 0 0-31m-187-94l0-62 62 0 63 0 0 62 0 63-63 0-62 0 0-63" horiz-adv-x="1000" />

<glyph glyph-name="tea" unicode="&#xe80b;" d="M250 694l0-94 31 0 32 0 0 94 0 94-32 0-31 0 0-94m188 0l0-94 31 0 31 0 0 94 0 94-31 0-31 0 0-94m187 0l0-94 31 0 32 0 0 94 0 94-32 0-31 0 0-94m-437-375l0-219 31 0 31 0 0-31 0-31 219 0 219 0 0 31 0 31 31 0 31 0 0 31 0 32 94 0 94 0 0 156 0 156-94 0-94 0 0 31 0 32-281 0-281 0 0-219m687 0l0-94-62 0-63 0 0 94 0 94 63 0 62 0 0-94m-812-375l0-32 437 0 438 0 0 32 0 31-438 0-437 0 0-31" horiz-adv-x="1000" />

<glyph glyph-name="tick" unicode="&#xe80c;" d="M813 569l0-31-32 0-31 0 0-32 0-31-31 0-31 0 0-31 0-31-32 0-31 0 0-32 0-31-31 0-31 0 0-31 0-31-32 0-31 0 0-32 0-31-31 0-31 0 0-31 0-31-32 0-31 0 0 31 0 31-31 0-31 0 0 31 0 32-32 0-31 0 0 31 0 31-31 0-31 0 0 31 0 32-63 0-62 0 0-63 0-62 31 0 31 0 0-32 0-31 31 0 32 0 0-31 0-31 31 0 31 0 0-32 0-31 31 0 32 0 0-31 0-31 93 0 94 0 0 31 0 31 31 0 32 0 0 31 0 32 31 0 31 0 0 31 0 31 31 0 32 0 0 31 0 32 31 0 31 0 0 31 0 31 31 0 32 0 0 31 0 32 31 0 31 0 0 31 0 31 31 0 32 0 0 63 0 62-63 0-62 0 0-31" horiz-adv-x="1000" />

<glyph glyph-name="tool" unicode="&#xe80d;" d="M375 663l0-63 63 0 62 0 0-31 0-31 31 0 32 0 0-125 0-125-125 0-125 0 0 31 0 31-32 0-31 0 0 63 0 62-62 0-63 0 0-94 0-93 31 0 32 0 0-32 0-31 31 0 31 0 0-31 0-31 156 0 157 0 0-32 0-31 31 0 31 0 0-31 0-31 31 0 32 0 0-32 0-31 93 0 94 0 0 94 0 94-31 0-31 0 0 31 0 31-32 0-31 0 0 31 0 32-31 0-31 0 0 156 0 156-32 0-31 0 0 31 0 32-31 0-31 0 0 31 0 31-94 0-94 0 0-62" horiz-adv-x="1000" />

<glyph glyph-name="toolbox" unicode="&#xe80e;" d="M250 600l0-62-62 0-63 0 0-282 0-281 375 0 375 0 0 281 0 282-62 0-63 0 0 62 0 63-250 0-250 0 0-63m438-31l0-31-188 0-187 0 0 31 0 31 187 0 188 0 0-31m125-156l0-63-63 0-62 0 0 31 0 32-188 0-187 0 0-32 0-31-63 0-62 0 0 63 0 62 312 0 313 0 0-62m-188-94l0-31-125 0-125 0 0 31 0 31 125 0 125 0 0-31m-312-63l0-31 187 0 188 0 0 31 0 32 62 0 63 0 0-125 0-125-313 0-312 0 0 125 0 125 62 0 63 0 0-32" horiz-adv-x="1000" />

<glyph glyph-name="trash" unicode="&#xe80f;" d="M375 819l0-31-125 0-125 0 0-32 0-31-31 0-31 0 0-31 0-31-32 0-31 0 0-32 0-31 500 0 500 0 0 31 0 32-31 0-31 0 0 31 0 31-32 0-31 0 0 31 0 32-125 0-125 0 0 31 0 31-125 0-125 0 0-31m-312-594l0-313 31 0 31 0 0-31 0-31 375 0 375 0 0 31 0 31 31 0 32 0 0 313 0 313-63 0-62 0 0-282 0-281-63 0-62 0 0 281 0 282-63 0-62 0 0-282 0-281-63 0-62 0 0 281 0 282-63 0-62 0 0-282 0-281-63 0-62 0 0 281 0 282-63 0-62 0 0-313" horiz-adv-x="1000" />

<glyph glyph-name="upload" unicode="&#xe810;" d="M420 754l0-31-31 0-31 0 0-32 0-31-32 0-31 0 0-31 0-31-31 0-31 0 0-32 0-31-32 0-31 0 0-31 0-31-31 0-31 0 0-32 0-31 93 0 94 0 0-156 0-156 188 0 187 0 0 156 0 156 94 0 94 0 0 31 0 32-32 0-31 0 0 31 0 31-32 0-31 0 2 31 1 32-31 0-31 0 0 31 0 31-32 0-31 0 0 31 0 32-31 0-31 0 0 31 0 31-64 0-64 0 0-31m-295-779l0-63 375 0 375 0 0 63 0 63-375 0-375 0 0-63" horiz-adv-x="1000" />

<glyph glyph-name="user" unicode="&#xe811;" d="M375 694l0-31-31 0-31 0 0-125 0-125 31 0 31 0 0-32 0-31 125 0 125 0 0 31 0 32 31 0 32 0 0 125 0 125-32 0-31 0 0 31 0 31-125 0-125 0 0-31m-62-500l0-31-63 0-62 0 0-32 0-31-32 0-31 0 0-125 0-125 375 0 375 0 0 125 0 125-31 0-31 0 0 31 0 32-63 0-62 0 0 31 0 31-188 0-187 0 0-31" horiz-adv-x="1000" />

<glyph glyph-name="vibrate" unicode="&#xe812;" d="M250 350l0-375 250 0 250 0 0 375 0 375-250 0-250 0 0-375m-125 0l0-250 31 0 32 0 0 250 0 250-32 0-31 0 0-250m500 0l0-250-125 0-125 0 0 250 0 250 125 0 125 0 0-250m188 0l0-250 31 0 31 0 0 250 0 250-31 0-31 0 0-250m-813 0l0-125 31 0 32 0 0 125 0 125-32 0-31 0 0-125m938 0l0-125 31 0 31 0 0 125 0 125-31 0-31 0 0-125" horiz-adv-x="1000" />

<glyph glyph-name="video" unicode="&#xe813;" d="M63 350l0-250 312 0 313 0 0 94 0 94 31 0 31 0 0-32 0-31 31 0 32 0 0-31 0-31 31 0 31 0 0-32 0-31 31 0 32 0 0 250 0 250-32 0-31 0 0-31 0-31-31 0-31 0 0-32 0-31-32 0-31 0 0-31 0-31-31 0-31 0 0 93 0 94-313 0-312 0 0-250" horiz-adv-x="1000" />

<glyph glyph-name="wallet" unicode="&#xe814;" d="M313 569l0-94-94 0-94 0 0-219 0-218 375 0 375 0 0 250 0 250-31 0-31 0 0 31 0 31-125 0-125 0 0 31 0 32-125 0-125 0 0-94m187 0l0-31 94 0 94 0 0-32 0-31-157 0-156 0 0 63 0 62 63 0 62 0 0-31m313-313l0-156-313 0-312 0 0 156 0 157 312 0 313 0 0-157m-563 0l0-31 31 0 32 0 0 31 0 32-32 0-31 0 0-32" horiz-adv-x="1000" />

<glyph glyph-name="wifi" unicode="&#xe815;" d="M250 631l0-31 125 0 125 0 0-31 0-31 31 0 32 0 0-32 0-31 31 0 31 0 0-31 0-31 31 0 32 0 0-32 0-31 31 0 31 0 0-125 0-125 31 0 32 0 0 125 0 125-32 0-31 0 0 31 0 32-31 0-31 0 0 31 0 31-32 0-31 0 0 31 0 32-31 0-31 0 0 31 0 31-32 0-31 0 0 31 0 32-125 0-125 0 0-32m0-125l0-31 94 0 94 0 0-31 0-31 31 0 31 0 0-32 0-31 31 0 32 0 0-31 0-31 31 0 31 0 0-94 0-94 31 0 32 0 0 94 0 94-32 0-31 0 0 31 0 31-31 0-31 0 0 31 0 32-32 0-31 0 0 31 0 31-31 0-31 0 0 31 0 32-94 0-94 0 0-32m0-125l0-31 63 0 62 0 0-31 0-31 31 0 32 0 0-32 0-31 31 0 31 0 0-62 0-63 31 0 32 0 0 63 0 62-32 0-31 0 0 31 0 32-31 0-31 0 0 31 0 31-32 0-31 0 0 31 0 32-62 0-63 0 0-32m0-218l0-63 63 0 62 0 0 63 0 62-62 0-63 0 0-62" horiz-adv-x="1000" />

<glyph glyph-name="adjust" unicode="&#xe816;" d="M125 600l0-125 31 0 32 0 0 63 0 62 31 0 31 0 0-31 0-31 31 0 32 0 0-32 0-31 31 0 31 0 0-31 0-31 31 0 32 0 0-63 0-62-32 0-31 0 0-32 0-31-31 0-31 0 0-31 0-31-32 0-31 0 0-32 0-31-31 0-31 0 0 63 0 62-32 0-31 0 0-125 0-125 125 0 125 0 0 31 0 32-62 0-63 0 0 31 0 31 31 0 32 0 0 31 0 32 31 0 31 0 0 31 0 31 31 0 32 0 0 31 0 32 62 0 63 0 0-32 0-31 31 0 31 0 0-31 0-31 31 0 32 0 0-32 0-31 31 0 31 0 0-31 0-31-62 0-63 0 0-32 0-31 125 0 125 0 0 125 0 125-31 0-31 0 0-62 0-63-32 0-31 0 0 31 0 32-31 0-31 0 0 31 0 31-32 0-31 0 0 31 0 32-31 0-31 0 0 62 0 63 31 0 31 0 0 31 0 31 31 0 32 0 0 31 0 32 31 0 31 0 0 31 0 31 31 0 32 0 0-62 0-63 31 0 31 0 0 125 0 125-125 0-125 0 0-31 0-31 63 0 62 0 0-32 0-31-31 0-31 0 0-31 0-31-32 0-31 0 0-32 0-31-31 0-31 0 0-31 0-31-63 0-62 0 0 31 0 31-32 0-31 0 0 31 0 32-31 0-31 0 0 31 0 31-32 0-31 0 0 31 0 32 63 0 62 0 0 31 0 31-125 0-125 0 0-125" horiz-adv-x="1000" />

<glyph glyph-name="alert" unicode="&#xe817;" d="M63 444l0-281 125 0 125 0 0-94 0-94 31 0 31 0 0 31 0 32 31 0 32 0 0 31 0 31 31 0 31 0 0 31 0 32 219 0 219 0 0 281 0 281-438 0-437 0 0-281m812 0l0-219-187 0-188 0 0-31 0-31-31 0-31 0 0-32 0-31-32 0-31 0 0 63 0 62-125 0-125 0 0 219 0 219 375 0 375 0 0-219m-687 125l0-31 312 0 313 0 0 31 0 31-313 0-312 0 0-31m0-125l0-31 312 0 313 0 0 31 0 31-313 0-312 0 0-31m0-125l0-31 156 0 156 0 0 31 0 31-156 0-156 0 0-31" horiz-adv-x="1000" />

<glyph glyph-name="arrow-down" unicode="&#xe818;" d="M313 506l0-156-94 0-94 0 0-31 0-31 31 0 32 0 0-32 0-31 31 0 31 0 0-31 0-31 31 0 32 0 0-32 0-31 31 0 31 0 0-31 0-31 31 0 32 0 0-32 0-31 62 0 63 0 0 31 0 32 31 0 31 0 0 31 0 31 31 0 32 0 0 31 0 32 31 0 31 0 0 31 0 31 31 0 32 0 0 31 0 32 31 0 31 0 0 31 0 31-94 0-93 0 0 156 0 157-188 0-187 0 0-157" horiz-adv-x="1000" />

<glyph glyph-name="arrow-left" unicode="&#xe819;" d="M438 694l0-31-32 0-31 0 0-32 0-31-31 0-31 0 0-31 0-31-32 0-31 0 0-32 0-31-31 0-31 0 0-31 0-31-32 0-31 0 0-63 0-62 31 0 32 0 0-32 0-31 31 0 31 0 0-31 0-31 31 0 32 0 0-32 0-31 31 0 31 0 0-31 0-31 31 0 32 0 0-32 0-31 31 0 31 0 0 94 0 94 156 0 157 0 0 187 0 188-157 0-156 0 0 93 0 94-31 0-31 0 0-31" horiz-adv-x="1000" />

<glyph glyph-name="arrow-right" unicode="&#xe81a;" d="M500 631l0-93-156 0-156 0 0-188 0-187 156 0 156 0 0-94 0-94 31 0 32 0 0 31 0 32 31 0 31 0 0 31 0 31 31 0 32 0 0 31 0 32 31 0 31 0 0 31 0 31 31 0 32 0 0 31 0 32 31 0 31 0 0 62 0 63-31 0-31 0 0 31 0 31-32 0-31 0 0 31 0 32-31 0-31 0 0 31 0 31-32 0-31 0 0 31 0 32-31 0-31 0 0 31 0 31-32 0-31 0 0-94" horiz-adv-x="1000" />

<glyph glyph-name="arrow-up" unicode="&#xe81b;" d="M438 694l0-31-32 0-31 0 0-32 0-31-31 0-31 0 0-31 0-31-32 0-31 0 0-32 0-31-31 0-31 0 0-31 0-31-32 0-31 0 0-32 0-31 94 0 94 0 0-156 0-156 187 0 188 0 0 156 0 156 93 0 94 0 0 31 0 32-31 0-31 0 0 31 0 31-32 0-31 0 0 31 0 32-31 0-31 0 0 31 0 31-32 0-31 0 0 31 0 32-31 0-31 0 0 31 0 31-63 0-62 0 0-31" horiz-adv-x="1000" />

<glyph glyph-name="at" unicode="&#xe81c;" d="M313 694l0-31-32 0-31 0 0-32 0-31-31 0-31 0 0-31 0-31-32 0-31 0 0-219 0-219 31 0 32 0 0-31 0-31 31 0 31 0 0-32 0-31 31 0 32 0 0-31 0-32 93 0 94 0 0 32 0 31-94 0-93 0 0 31 0 32-32 0-31 0 0 31 0 31-31 0-31 0 0 219 0 219 31 0 31 0 0 31 0 31 31 0 32 0 0 31 0 32 187 0 188 0 0-32 0-31 31 0 31 0 0-31 0-31 31 0 32 0 0-219 0-219-63 0-62 0 0 219 0 219-32 0-31 0 0-32 0-31-31 0-31 0 0 31 0 32-63 0-62 0 0-32 0-31-32 0-31 0 0-31 0-31-31 0-31 0 0-125 0-125 31 0 31 0 0-32 0-31 156 0 157 0 0-31 0-31 62 0 63 0 0 31 0 31 31 0 31 0 0 219 0 219-31 0-31 0 0 31 0 31-32 0-31 0 0 31 0 32-31 0-31 0 0 31 0 31-188 0-187 0 0-31m250-250l0-31 31 0 31 0 0-125 0-125-125 0-125 0 0 125 0 125 31 0 32 0 0 31 0 31 62 0 63 0 0-31" horiz-adv-x="1000" />

<glyph glyph-name="bag" unicode="&#xe81d;" d="M375 756l0-31-31 0-31 0 0-94 0-93-94 0-94 0 0-313 0-313 375 0 375 0 0 313 0 313-94 0-93 0 0 93 0 94-32 0-31 0 0 31 0 32-125 0-125 0 0-32m250-125l0-93-125 0-125 0 0 93 0 94 125 0 125 0 0-94m-312-187l0-31-32 0-31 0 0-32 0-31 94 0 94 0 0 31 0 32-32 0-31 0 0 31 0 31 125 0 125 0 0-31 0-31-31 0-31 0 0-32 0-31 93 0 94 0 0 31 0 32-31 0-31 0 0 31 0 31 62 0 63 0 0-250 0-250-313 0-312 0 0 250 0 250 62 0 63 0 0-31" horiz-adv-x="1000" />

<glyph glyph-name="bars" unicode="&#xe81e;" d="M188 506l0-31 312 0 313 0 0 31 0 32-313 0-312 0 0-32m0-187l0-31 312 0 313 0 0 31 0 31-313 0-312 0 0-31m0-188l0-31 312 0 313 0 0 31 0 32-313 0-312 0 0-32" horiz-adv-x="1000" />

<glyph glyph-name="bell" unicode="&#xe81f;" d="M438 819l0-31-32 0-31 0 0-32 0-31-31 0-31 0 0-62 0-63-32 0-31 0 0-94 0-93-31 0-31 0 0-32 0-31-32 0-31 0 0-94 0-93-31 0-31 0 0-63 0-62 437 0 438 0 0 62 0 63-32 0-31 0 0 93 0 94-31 0-31 0 0 31 0 32-32 0-31 0 0 93 0 94-31 0-31 0 0 63 0 62-32 0-31 0 0 31 0 32-31 0-31 0 0 31 0 31-63 0-62 0 0-31m0-907l0-62 62 0 63 0 0 62 0 63-63 0-62 0 0-63" horiz-adv-x="1000" />

<glyph glyph-name="bin" unicode="&#xe820;" d="M188 600l0-62 312 0 313 0 0 62 0 63-313 0-312 0 0-63m62-344l0-218 250 0 250 0 0 218 0 219-250 0-250 0 0-219m313 125l0-31-63 0-62 0 0 31 0 32 62 0 63 0 0-32" horiz-adv-x="1000" />

<glyph glyph-name="bishop" unicode="&#xe821;" d="M250 538l0-188-62 0-63 0 0-62 0-63 63 0 62 0 0-62 0-63-125 0-125 0 0-125 0-125 500 0 500 0 0 125 0 125-125 0-125 0 0 63 0 62 63 0 62 0 0 63 0 62-62 0-63 0 0 125 0 125-62 0-63 0 0 63 0 62-187 0-188 0 0-187m375 0l0-63-62 0-63 0 0 63 0 62 63 0 62 0 0-62" horiz-adv-x="1000" />

<glyph glyph-name="bluetooth" unicode="&#xe822;" d="M438 631l0-156-32 0-31 0 0 31 0 32-31 0-31 0 0 31 0 31-32 0-31 0 0 31 0 32-31 0-31 0 0-32 0-31 31 0 31 0 0-31 0-31 31 0 32 0 0-32 0-31 31 0 31 0 0-31 0-31 31 0 32 0 0-63 0-62-32 0-31 0 0-32 0-31-31 0-31 0 0-31 0-31-32 0-31 0 0-32 0-31-31 0-31 0 0-31 0-31 31 0 31 0 0 31 0 31 31 0 32 0 0 31 0 32 31 0 31 0 0 31 0 31 31 0 32 0 0-156 0-157 62 0 63 0 0 32 0 31 31 0 31 0 0 31 0 32 31 0 32 0 0 31 0 31 31 0 31 0 0 31 0 32-31 0-31 0 0 31 0 31-32 0-31 0 0 31 0 32-31 0-31 0 0 62 0 63 31 0 31 0 0 31 0 31 31 0 32 0 0 31 0 32 31 0 31 0 0 31 0 31-31 0-31 0 0 31 0 32-32 0-31 0 0 31 0 31-31 0-31 0 0 31 0 32-63 0-62 0 0-157m125 63l0-31 31 0 31 0 0-32 0-31 31 0 32 0 0-31 0-31-32 0-31 0 0-32 0-31-31 0-31 0 0-31 0-31-32 0-31 0 0 156 0 156 31 0 32 0 0-31m0-438l0-31 31 0 31 0 0-31 0-31 31 0 32 0 0-32 0-31-32 0-31 0 0-31 0-31-31 0-31 0 0-32 0-31-32 0-31 0 0 156 0 157 31 0 32 0 0-32" horiz-adv-x="1000" />

<glyph glyph-name="board" unicode="&#xe823;" d="M375 694l0-31-125 0-125 0 0-157 0-156 125 0 125 0 0-219 0-219 63 0 62 0 0 219 0 219 125 0 125 0 0 31 0 32 31 0 32 0 0 31 0 31 31 0 31 0 0 31 0 32-31 0-31 0 0 31 0 31-32 0-31 0 0 31 0 32-125 0-125 0 0 31 0 31-62 0-63 0 0-31m375-125l0-31 31 0 32 0 0-32 0-31-32 0-31 0 0-31 0-31-281 0-281 0 0 93 0 94 281 0 281 0 0-31" horiz-adv-x="1000" />

<glyph glyph-name="book" unicode="&#xe824;" d="M188 725l0-62-32 0-31 0 0-32 0-31 31 0 32 0 0-62 0-63-32 0-31 0 0-31 0-31 31 0 32 0 0-63 0-62-32 0-31 0 0-32 0-31 31 0 32 0 0-62 0-63-32 0-31 0 0-31 0-31 31 0 32 0 0-63 0-63 343 0 344 0 0 438 0 438-344 0-343 0 0-63m562-375l0-375-250 0-250 0 0 31 0 32 31 0 32 0 0 31 0 31-32 0-31 0 0 63 0 62 31 0 32 0 0 31 0 32-32 0-31 0 0 62 0 63 31 0 32 0 0 31 0 31-32 0-31 0 0 63 0 62 31 0 32 0 0 31 0 32-32 0-31 0 0 31 0 31 250 0 250 0 0-375" horiz-adv-x="1000" />

<glyph glyph-name="bookmark" unicode="&#xe825;" d="M625 756l0-31-31 0-31 0 0-31 0-31-32 0-31 0 0-32 0-31-31 0-31 0 0-31 0-31-32 0-31 0 0-32 0-31-31 0-31 0 0-31 0-31-32 0-31 0 0-32 0-31-31 0-31 0 0-31 0-31-32 0-31 0 0-32 0-31-31 0-31 0 0-31 0-31 31 0 31 0 0-32 0-31 31 0 32 0 0-31 0-31 31 0 31 0 0-32 0-31 31 0 32 0 0 31 0 32 31 0 31 0 0 31 0 31 31 0 32 0 0 31 0 32 31 0 31 0 0 31 0 31 31 0 32 0 0 31 0 32 31 0 31 0 0 31 0 31 31 0 32 0 0 31 0 32 31 0 31 0 0 31 0 31-31 0-31 0 0 31 0 32-63 0-62 0 0-32 0-31-32 0-31 0 0-31 0-31-31 0-31 0 0-32 0-31-32 0-31 0 0-31 0-31-31 0-31 0 0-32 0-31 31 0 31 0 0 31 0 32 31 0 32 0 0 31 0 31 31 0 31 0 0 31 0 32 31 0 32 0 0 31 0 31 62 0 63 0 0-31 0-31-32 0-31 0 0-32 0-31-31 0-31 0 0-31 0-31-32 0-31 0 0-32 0-31-31 0-31 0 0-31 0-31-32 0-31 0 0-32 0-31-31 0-31 0 0-31 0-31-32 0-31 0 0 31 0 31-31 0-31 0 0 31 0 32-32 0-31 0 0 31 0 31 31 0 32 0 0 31 0 32 31 0 31 0 0 31 0 31 31 0 32 0 0 31 0 32 31 0 31 0 0 31 0 31 31 0 32 0 0 31 0 32 31 0 31 0 0 31 0 31 31 0 32 0 0 31 0 32 31 0 31 0 0 31 0 31 31 0 32 0 0-31 0-31 31 0 31 0 0-32 0-31 31 0 32 0 0-31 0-31 31 0 31 0 0-63 0-62-31 0-31 0 0-32 0-31-32 0-31 0 0-31 0-31-31 0-31 0 0-32 0-31-32 0-31 0 0-31 0-31-31 0-31 0 0-32 0-31 31 0 31 0 0 31 0 32 31 0 32 0 0 31 0 31 31 0 31 0 0 31 0 32 31 0 32 0 0 31 0 31 31 0 31 0 0 31 0 32 31 0 32 0 0 62 0 63-32 0-31 0 0 31 0 31-31 0-31 0 0 31 0 32-32 0-31 0 0 31 0 31-31 0-31 0 0 31 0 32-32 0-31 0 0-32" horiz-adv-x="1000" />

<glyph glyph-name="brick" unicode="&#xe826;" d="M63 663l0-125 93 0 94 0 0 125 0 125-94 0-93 0 0-125m250 0l0-125 156 0 156 0 0 125 0 125-156 0-156 0 0-125m375-188l0-312 125 0 125 0 0 312 0 313-125 0-125 0 0-313m-625-156l0-156 281 0 281 0 0 156 0 156-281 0-281 0 0-156m0-313l0-94 156 0 156 0 0 94 0 94-156 0-156 0 0-94m375 0l0-94 250 0 250 0 0 94 0 94-250 0-250 0 0-94" horiz-adv-x="1000" />

<glyph glyph-name="calc" unicode="&#xe827;" d="M63 350l0-438 437 0 438 0 0 438 0 438-438 0-437 0 0-438m812 0l0-375-375 0-375 0 0 375 0 375 375 0 375 0 0-375m-562 219l0-31-32 0-31 0 0-32 0-31 31 0 32 0 0-31 0-31 31 0 31 0 0 31 0 31 31 0 32 0 0 31 0 32-32 0-31 0 0 31 0 31-31 0-31 0 0-31m250-63l0-31 93 0 94 0 0 31 0 32-94 0-93 0 0-32m-313-250l0-31 31 0 32 0 0-31 0-31-32 0-31 0 0-32 0-31 31 0 32 0 0 31 0 32 31 0 31 0 0-32 0-31 31 0 32 0 0 31 0 32-32 0-31 0 0 31 0 31 31 0 32 0 0 31 0 32-32 0-31 0 0-32 0-31-31 0-31 0 0 31 0 32-32 0-31 0 0-32m313 0l0-31 93 0 94 0 0 31 0 32-94 0-93 0 0-32m0-125l0-31 93 0 94 0 0 31 0 32-94 0-93 0 0-32" horiz-adv-x="1000" />

<glyph glyph-name="camera" unicode="&#xe828;" d="M313 600l0-62-32 0-31 0 0 31 0 31-31 0-31 0 0-31 0-31-32 0-31 0 0-250 0-250 375 0 375 0 0 250 0 250-94 0-93 0 0 62 0 63-188 0-187 0 0-63m312-62l0-63 94 0 94 0 0-187 0-188-313 0-312 0 0 188 0 187 93 0 94 0 0 63 0 62 125 0 125 0 0-62m-250-250l0-125 125 0 125 0 0 125 0 125-125 0-125 0 0-125m188 0l0-63-63 0-62 0 0 63 0 62 62 0 63 0 0-62" horiz-adv-x="1000" />

<glyph glyph-name="cardpay" unicode="&#xe829;" d="M63 350l0-312 437 0 438 0 0 312 0 313-438 0-437 0 0-313m812 219l0-31-375 0-375 0 0 31 0 31 375 0 375 0 0-31m0-313l0-156-375 0-375 0 0 156 0 157 375 0 375 0 0-157m-687-62l0-31 62 0 63 0 0 31 0 31-63 0-62 0 0-31m187 0l0-31 63 0 62 0 0 31 0 31-62 0-63 0 0-31" horiz-adv-x="1000" />

<glyph glyph-name="command" unicode="&#xe82a;" d="M125 569l0-31 31 0 32 0 0-32 0-31 31 0 31 0 0-31 0-31 31 0 32 0 0-32 0-31-32 0-31 0 0-31 0-31-31 0-31 0 0-32 0-31-32 0-31 0 0-31 0-31 63 0 62 0 0 31 0 31 31 0 32 0 0 31 0 32 31 0 31 0 0 31 0 31 31 0 32 0 0 31 0 32-32 0-31 0 0 31 0 31-31 0-31 0 0 31 0 32-32 0-31 0 0 31 0 31-62 0-63 0 0-31m125-531l0-63 313 0 312 0 0 63 0 62-312 0-313 0 0-62" horiz-adv-x="1000" />

<glyph glyph-name="connect" unicode="&#xe82b;" d="M625 756l0-31-62 0-63 0 0-31 0-31-31 0-31 0 0-32 0-31-32 0-31 0 0-31 0-31-31 0-31 0 0-32 0-31-125 0-125 0 0-125 0-125 125 0 125 0 0-31 0-31 31 0 31 0 0-32 0-31 31 0 32 0 0-31 0-31 31 0 31 0 0-32 0-31 63 0 62 0 0-31 0-32 125 0 125 0 0 126 0 125-125 0-125 0 0-32 0-31-62 0-63 0 0 31 0 32-31 0-31 0 0 31 0 31-32 0-31 0 0 31 0 32-31 0-31 0 0 62 0 63 31 0 31 0 0 31 0 31 31 0 32 0 0 31 0 32 31 0 31 0 0 31 0 31 63 0 62 0 0-31 0-31 125 0 125 0 0 125 0 125-125 0-125 0 0-32" horiz-adv-x="1000" />

<glyph glyph-name="copy" unicode="&#xe82c;" d="M188 413l0-313 62 0 63 0 0-62 0-63 250 0 250 0 0 313 0 312-63 0-62 0 0 63 0 62-250 0-250 0 0-312m437 218l0-31-156 0-156 0 0-219 0-218-32 0-31 0 0 250 0 250 188 0 187 0 0-32m125-343l0-250-187 0-188 0 0 250 0 250 188 0 187 0 0-250" horiz-adv-x="1000" />

<glyph glyph-name="crop" unicode="&#xe82d;" d="M250 600l0-62-62 0-63 0 0-32 0-31 63 0 62 0 0-187 0-188 188 0 187 0 0-62 0-63 31 0 32 0 0 63 0 62 62 0 63 0 0 31 0 32-63 0-62 0 0 187 0 188 31 0 31 0 0 31 0 31 31 0 32 0 0 31 0 32-32 0-31 0 0-32 0-31-31 0-31 0 0-31 0-31-188 0-187 0 0 62 0 63-32 0-31 0 0-63m313-156l0-31 31 0 31 0 0-125 0-125-125 0-125 0 0 31 0 31-31 0-31 0 0 125 0 125 125 0 125 0 0-31m-63-63l0-31-31 0-31 0 0-31 0-31-32 0-31 0 0-32 0-31 31 0 32 0 0 31 0 32 31 0 31 0 0 31 0 31 31 0 32 0 0 31 0 32-32 0-31 0 0-32" horiz-adv-x="1000" />

<glyph glyph-name="cross" unicode="&#xe82e;" d="M63 694l0-94 31 0 31 0 0-31 0-31 31 0 32 0 0-32 0-31 31 0 31 0 0-31 0-31 31 0 32 0 0-63 0-62-32 0-31 0 0-32 0-31-31 0-31 0 0-31 0-31-32 0-31 0 0-32 0-31-31 0-31 0 0-94 0-94 93 0 94 0 0 32 0 31 31 0 32 0 0 31 0 32 31 0 31 0 0 31 0 31 31 0 32 0 0 31 0 32 62 0 63 0 0-32 0-31 31 0 31 0 0-31 0-31 31 0 32 0 0-32 0-31 31 0 31 0 0-31 0-32 94 0 94 0 0 94 0 94-32 0-31 0 0 31 0 32-31 0-31 0 0 31 0 31-32 0-31 0 0 31 0 32-31 0-31 0 0 62 0 63 31 0 31 0 0 31 0 31 31 0 32 0 0 31 0 32 31 0 31 0 0 31 0 31 31 0 32 0 0 94 0 94-94 0-94 0 0-32 0-31-31 0-31 0 0-31 0-31-32 0-31 0 0-32 0-31-31 0-31 0 0-31 0-31-63 0-62 0 0 31 0 31-32 0-31 0 0 31 0 32-31 0-31 0 0 31 0 31-32 0-31 0 0 31 0 32-94 0-93 0 0-94" horiz-adv-x="1000" />

<glyph glyph-name="dash" unicode="&#xe82f;" d="M125 444l0-31-31 0-31 0 0-63 0-62 31 0 31 0 0-32 0-31 375 0 375 0 0 31 0 32 31 0 32 0 0 62 0 63-32 0-31 0 0 31 0 31-375 0-375 0 0-31" horiz-adv-x="1000" />

<glyph glyph-name="desktop" unicode="&#xe830;" d="M125 444l0-219 156 0 157 0 0-62 0-63-63 0-62 0 0-31 0-31 187 0 188 0 0 31 0 31-63 0-62 0 0 63 0 62 156 0 156 0 0 219 0 219-375 0-375 0 0-219m688 0l0-156-313 0-312 0 0 156 0 156 312 0 313 0 0-156" horiz-adv-x="1000" />

<glyph glyph-name="dislike" unicode="&#xe831;" d="M250 631l0-31-62 0-63 0 0-156 0-156 63 0 62 0 0-32 0-31 31 0 32 0 0-31 0-31 31 0 31 0 0-32 0-31 31 0 32 0 0-31 0-31 93 0 94 0 0 93 0 94 125 0 125 0 0 219 0 219-312 0-313 0 0-32m563-187l0-156-125 0-125 0 0-94 0-94-32 0-31 0 0 31 0 32-31 0-31 0 0 31 0 31-32 0-31 0 0 31 0 32-31 0-31 0 0 156 0 156 250 0 250 0 0-156" horiz-adv-x="1000" />

<glyph glyph-name="dollar" unicode="&#xe832;" d="M438 788l0-63-94 0-94 0 0-31 0-31-31 0-31 0 0-157 0-156 31 0 31 0 0-31 0-31 94 0 94 0 0-94 0-94-125 0-125 0 0-31 0-31 31 0 31 0 0-32 0-31 94 0 94 0 0-63 0-62 62 0 63 0 0 62 0 63 93 0 94 0 0 31 0 32 31 0 32 0 0 156 0 156-32 0-31 0 0 31 0 32-94 0-93 0 0 93 0 94 125 0 125 0 0 31 0 32-32 0-31 0 0 31 0 31-94 0-93 0 0 63 0 62-63 0-62 0 0-62m0-282l0-93-63 0-62 0 0 93 0 94 62 0 63 0 0-94m250-312l0-94-63 0-62 0 0 94 0 94 62 0 63 0 0-94" horiz-adv-x="1000" />

<glyph glyph-name="download" unicode="&#xe833;" d="M313 631l0-156-94 0-94 0 0-31 0-31 31 0 32 0 0-32 0-31 31 0 31 0 0-31 0-31 31 0 32 0 0-32 0-31 31 0 31 0 0-31 0-31 31 0 32 0 0-32 0-31 62 0 63 0 0 31 0 32 31 0 31 0 0 31 0 31 31 0 32 0 0 31 0 32 31 0 31 0 0 31 0 31 31 0 32 0 0 31 0 32 31 0 31 0 0 31 0 31-94 0-93 0 0 156 0 157-188 0-187 0 0-157m-188-656l0-63 375 0 375 0 0 63 0 63-375 0-375 0 0-63" horiz-adv-x="1000" />

<glyph glyph-name="edit" unicode="&#xe834;" d="M813 819l0-31-32 0-31 0 0-32 0-31 31 0 32 0 0-31 0-31 31 0 31 0 0-32 0-31 31 0 32 0 0 31 0 32 31 0 31 0 0 31 0 31-31 0-31 0 0 31 0 32-32 0-31 0 0 31 0 31-31 0-31 0 0-31m-750-469l0-438 375 0 375 0 0 126 0 125-32 0-31 0 0-94 0-94-312 0-313 0 0 375 0 375 94 0 94 0 0 31 0 32-125 0-125 0 0-438m562 281l0-31-31 0-31 0 0-31 0-31-32 0-31 0 0-32 0-31-31 0-31 0 0-31 0-31-32 0-31 0 0-32 0-31-31 0-31 0 0-31 0-31-32 0-31 0 0-94 0-94 94 0 94 0 0 31 0 32 31 0 31 0 0 31 0 31 31 0 32 0 0 31 0 32 31 0 31 0 0 31 0 31 31 0 32 0 0 31 0 32 31 0 31 0 0 31 0 31 31 0 32 0 0 31 0 32-32 0-31 0 0 31 0 31-31 0-31 0 0 31 0 32-32 0-31 0 0-32m63-125l0-31-32 0-31 0 0-31 0-31-31 0-31 0 0-32 0-31-32 0-31 0 0-31 0-31-31 0-31 0 0 31 0 31 31 0 31 0 0 31 0 32 31 0 32 0 0 31 0 31 31 0 31 0 0 31 0 32 31 0 32 0 0-32m-313-250l0-31 31 0 32 0 0-31 0-31-63 0-62 0 0 62 0 63 31 0 31 0 0-32" horiz-adv-x="1000" />

<glyph glyph-name="eject" unicode="&#xe835;" d="M438 631l0-31-32 0-31 0 0-31 0-31-31 0-31 0 0-32 0-31-32 0-31 0 0-31 0-31-31 0-31 0 0-32 0-31-32 0-31 0 0-31 0-31-31 0-31 0 0-32 0-31 437 0 438 0 0 31 0 32-32 0-31 0 0 31 0 31-31 0-31 0 0 31 0 32-32 0-31 0 0 31 0 31-31 0-31 0 0 31 0 32-32 0-31 0 0 31 0 31-31 0-31 0 0 31 0 32-63 0-62 0 0-32m-375-593l0-63 437 0 438 0 0 63 0 62-438 0-437 0 0-62" horiz-adv-x="1000" />

<glyph glyph-name="exchange" unicode="&#xe836;" d="M625 725l0-62-281 0-281 0 0-94 0-94 281 0 281 0 0-62 0-63 63 0 62 0 0 31 0 32 31 0 32 0 0 31 0 31 31 0 31 0 0 31 0 32 31 0 32 0 0 31 0 31-32 0-31 0 0 31 0 32-31 0-31 0 0 31 0 31-32 0-31 0 0 31 0 32-62 0-63 0 0-63m-375-344l0-31-31 0-31 0 0-31 0-31-32 0-31 0 0-32 0-31-31 0-31 0 0-31 0-31 31 0 31 0 0-32 0-31 31 0 32 0 0-31 0-31 31 0 31 0 0-32 0-31 63 0 62 0 0 63 0 62 281 0 282 0 0 94 0 94-282 0-281 0 0 62 0 63-62 0-63 0 0-32" horiz-adv-x="1000" />

<glyph glyph-name="exclaimation" unicode="&#xe837;" d="M438 819l0-31-32 0-31 0 0-282 0-281 31 0 32 0 0-94 0-93 62 0 63 0 0 93 0 94 31 0 31 0 0 281 0 282-31 0-31 0 0 31 0 31-63 0-62 0 0-31m0-907l0-62 62 0 63 0 0 62 0 63-63 0-62 0 0-63" horiz-adv-x="1000" />

<glyph glyph-name="experiment" unicode="&#xe838;" d="M625 819l0-31 31 0 32 0 0 31 0 31-32 0-31 0 0-31m-187-63l0-31 31 0 31 0 0 31 0 32-31 0-31 0 0-32m-188-125l0-31 31 0 32 0 0-125 0-125-32 0-31 0 0-31 0-31-31 0-31 0 0-32 0-31-32 0-31 0 0-125 0-125 406 0 407 0 0 125 0 125-32 0-31 0 0 31 0 32-31 0-31 0 0 31 0 31-32 0-31 0 0 125 0 125 31 0 32 0 0 31 0 32-282 0-281 0 0-32m438-218l0-188 31 0 31 0 0-31 0-31-219 0-218 0 0 31 0 31 31 0 31 0 0 188 0 187 156 0 157 0 0-187m-188 93l0-31 31 0 32 0 0 31 0 32-32 0-31 0 0-32m-62-125l0-31 31 0 31 0 0 31 0 32-31 0-31 0 0-32m125-125l0-31 31 0 31 0 0 31 0 32-31 0-31 0 0-32" horiz-adv-x="1000" />

<glyph glyph-name="fax" unicode="&#xe839;" d="M375 350l0-438 281 0 282 0 0 438 0 438-282 0-281 0 0-438m375 313l0-63 63 0 62 0 0-62 0-63-219 0-218 0 0 125 0 125 156 0 156 0 0-62m-625-407l0-344 94 0 94 0 0 344 0 344-94 0-94 0 0-344m438 63l0-31-32 0-31 0 0 31 0 31 31 0 32 0 0-31m125 0l0-31-32 0-31 0 0 31 0 31 31 0 32 0 0-31m125 0l0-31-32 0-31 0 0 31 0 31 31 0 32 0 0-31m-250-125l0-31-32 0-31 0 0 31 0 31 31 0 32 0 0-31m125 0l0-31-32 0-31 0 0 31 0 31 31 0 32 0 0-31m125 0l0-31-32 0-31 0 0 31 0 31 31 0 32 0 0-31m-250-125l0-31-32 0-31 0 0 31 0 31 31 0 32 0 0-31m125 0l0-31-32 0-31 0 0 31 0 31 31 0 32 0 0-31m125 0l0-31-32 0-31 0 0 31 0 31 31 0 32 0 0-31" horiz-adv-x="1000" />

<glyph glyph-name="file" unicode="&#xe83a;" d="M188 319l0-407 312 0 313 0 0 344 0 344-32 0-31 0 0 31 0 32-31 0-31 0 0 31 0 31-250 0-250 0 0-406m375 250l0-94 93 0 94 0 0-250 0-250-250 0-250 0 0 344 0 344 156 0 157 0 0-94m125 62l0-31 31 0 31 0 0-31 0-31-62 0-63 0 0 62 0 63 31 0 32 0 0-32m-375-125l0-31 93 0 94 0 0 31 0 32-94 0-93 0 0-32m0-125l0-31 187 0 188 0 0 31 0 32-188 0-187 0 0-32m0-125l0-31 187 0 188 0 0 31 0 32-188 0-187 0 0-32m0-125l0-31 187 0 188 0 0 31 0 32-188 0-187 0 0-32" horiz-adv-x="1000" />

<glyph glyph-name="filter" unicode="&#xe83b;" d="M188 569l0-31 31 0 31 0 0-32 0-31 31 0 32 0 0-31 0-31 31 0 31 0 0-125 0-125 31 0 32 0 0-32 0-31 31 0 31 0 0-31 0-31 31 0 32 0 0 187 0 188 31 0 31 0 0 31 0 31 31 0 32 0 0 31 0 32 31 0 31 0 0 31 0 31-281 0-281 0 0-31" horiz-adv-x="1000" />

<glyph glyph-name="flag" unicode="&#xe83c;" d="M250 819l0-31-31 0-31 0 0-63 0-62 31 0 31 0 0-407 0-406 63 0 62 0 0 188 0 187 63 0 62 0 0 31 0 32 94 0 94 0 0-32 0-31 62 0 63 0 0 188 0 187-63 0-62 0 0 31 0 32-94 0-94 0 0-32 0-31-62 0-63 0 0 31 0 32 31 0 32 0 0 62 0 63-32 0-31 0 0 31 0 31-62 0-63 0 0-31m438-250l0-31 31 0 31 0 0-125 0-125-31 0-31 0 0 31 0 31-94 0-94 0 0-31 0-31-62 0-63 0 0 125 0 125 63 0 62 0 0 31 0 31 94 0 94 0 0-31" horiz-adv-x="1000" />

<glyph glyph-name="folder" unicode="&#xe83d;" d="M125 288l0-313 375 0 375 0 0 250 0 250-187 0-188 0 0 63 0 62-187 0-188 0 0-312m313 218l0-31-125 0-125 0 0 31 0 32 125 0 125 0 0-32" horiz-adv-x="1000" />

<glyph glyph-name="game" unicode="&#xe83e;" d="M563 694l0-31-32 0-31 0 0-63 0-62-250 0-250 0 0-282 0-281 188 0 187 0 0 31 0 32 125 0 125 0 0-32 0-31 188 0 187 0 0 281 0 282-219 0-218 0 0 62 0 63 31 0 31 0 0 31 0 31-31 0-31 0 0-31m375-438l0-218-157 0-156 0 0 31 0 31-125 0-125 0 0-31 0-31-156 0-156 0 0 218 0 219 437 0 438 0 0-219m-750 125l0-31-32 0-31 0 0-31 0-31 31 0 32 0 0-32 0-31 31 0 31 0 0 31 0 32 31 0 32 0 0 31 0 31-32 0-31 0 0 31 0 32-31 0-31 0 0-32m62-62l0-31-31 0-31 0 0 31 0 31 31 0 31 0 0-31m438 0l0-31 31 0 31 0 0 31 0 31-31 0-31 0 0-31m125 0l0-31 31 0 31 0 0 31 0 31-31 0-31 0 0-31m-438-125l0-31 31 0 32 0 0 31 0 31-32 0-31 0 0-31m188 0l0-31 31 0 31 0 0 31 0 31-31 0-31 0 0-31" horiz-adv-x="1000" />

<glyph glyph-name="ghost" unicode="&#xe83f;" d="M188 819l0-31-63 0-62 0 0-407 0-406-32 0-31 0 0-63 0-62 94 0 94 0 0 469 0 469 281 0 281 0 0-469 0-469 63 0 62 0 0 469 0 469-62 0-63 0 0 31 0 31-281 0-281 0 0-31m62-281l0-63 63 0 62 0 0 63 0 62-62 0-63 0 0-62m313 0l0-63 62 0 63 0 0 63 0 62-63 0-62 0 0-62m-188-313l0-62 156 0 157 0 0 62 0 63-157 0-156 0 0-63" horiz-adv-x="1000" />

<glyph glyph-name="gift" unicode="&#xe840;" d="M313 819l0-31-32 0-31 0 0-63 0-62 31 0 32 0 0-32 0-31-125 0-125 0 0-125 0-125 62 0 63 0 0-219 0-219 343 0 344 0 0 219 0 219 63 0 62 0 0 125 0 125-125 0-125 0 0 31 0 32 31 0 32 0 0 62 0 63-32 0-31 0 0 31 0 31-62 0-63 0 0-31 0-31-31 0-31 0 0-32 0-31-32 0-31 0 0 31 0 32-31 0-31 0 0 31 0 31-63 0-62 0 0-31m125-63l0-31 31 0 31 0 0-62 0-63-62 0-63 0 0 31 0 32-31 0-31 0 0 62 0 63 62 0 63 0 0-32m312-31l0-62-31 0-31 0 0-32 0-31-63 0-62 0 0 63 0 62 31 0 31 0 0 31 0 32 63 0 62 0 0-63m-250-250l0-62-187 0-188 0 0 62 0 63 188 0 187 0 0-63m438 0l0-62-188 0-187 0 0 62 0 63 187 0 188 0 0-63m-438-312l0-188-125 0-125 0 0 188 0 187 125 0 125 0 0-187m313 0l0-188-125 0-125 0 0 188 0 187 125 0 125 0 0-187" horiz-adv-x="1000" />

<glyph glyph-name="glass" unicode="&#xe841;" d="M125 694l0-31 31 0 32 0 0-32 0-31 31 0 31 0 0-31 0-31 31 0 32 0 0-32 0-31 31 0 31 0 0-31 0-31 31 0 32 0 0-157 0-156-32 0-31 0 0-31 0-31-31 0-31 0 0-32 0-31 187 0 188 0 0 31 0 32-32 0-31 0 0 31 0 31-31 0-31 0 0 156 0 157 31 0 31 0 0 31 0 31 31 0 32 0 0 31 0 32 31 0 31 0 0 31 0 31 31 0 32 0 0 31 0 32 31 0 31 0 0 31 0 31-375 0-375 0 0-31" horiz-adv-x="1000" />

<glyph glyph-name="goggles" unicode="&#xe842;" d="M313 631l0-31-32 0-31 0 0-31 0-31-31 0-31 0 0-32 0-31-32 0-31 0 0-187 0-188 156 0 157 0 0 125 0 125 62 0 63 0 0-125 0-125 156 0 156 0 0 188 0 187-31 0-31 0 0 31 0 32-32 0-31 0 0 31 0 31-31 0-31 0 0 31 0 32-32 0-31 0 0-32 0-31 31 0 32 0 0-31 0-31 31 0 31 0 0-32 0-31 31 0 32 0 0-31 0-31-313 0-312 0 0 31 0 31 31 0 31 0 0 31 0 32 31 0 32 0 0 31 0 31 31 0 31 0 0 31 0 32-31 0-31 0 0-32" horiz-adv-x="1000" />

<glyph glyph-name="graph" unicode="&#xe843;" d="M63 350l0-438 437 0 438 0 0 32 0 31-407 0-406 0 0 406 0 407-31 0-31 0 0-438m312-62l0-250 63 0 62 0 0 250 0 250-62 0-63 0 0-250m375-63l0-187 63 0 62 0 0 187 0 188-62 0-63 0 0-188m-187-62l0-125 62 0 63 0 0 125 0 125-63 0-62 0 0-125m-375-32l0-93 62 0 63 0 0 93 0 94-63 0-62 0 0-94" horiz-adv-x="1000" />

<glyph glyph-name="heart" unicode="&#xe844;" d="M125 756l0-31-31 0-31 0 0-31 0-31-32 0-31 0 0-188 0-187 31 0 32 0 0-32 0-31 31 0 31 0 0-31 0-31 31 0 32 0 0-32 0-31 31 0 31 0 0-31 0-31 31 0 32 0 0-32 0-31 31 0 31 0 0-31 0-32 31 0 32 0 0-31 0-31 62 0 63 0 0 31 0 31 31 0 31 0 0 32 0 31 31 0 32 0 0 31 0 32 31 0 31 0 0 31 0 31 31 0 32 0 0 31 0 32 31 0 31 0 0 31 0 31 31 0 32 0 0 31 0 32 31 0 31 0 0 187 0 188-31 0-31 0 0 31 0 31-32 0-31 0 0 31 0 32-94 0-93 0 0-32 0-31-32 0-31 0 0-31 0-31-31 0-31 0 0-32 0-31-63 0-62 0 0 31 0 32-32 0-31 0 0 31 0 31-31 0-31 0 0 31 0 32-94 0-94 0 0-32" horiz-adv-x="1000" />

<glyph glyph-name="home" unicode="&#xe845;" d="M438 694l0-31-32 0-31 0 0-32 0-31-31 0-31 0 0-31 0-31-32 0-31 0 0-32 0-31-31 0-31 0 0-31 0-31-32 0-31 0 0-32 0-31-31 0-31 0 0-62 0-63 31 0 31 0 0 31 0 32 31 0 32 0 0-125 0-125 125 0 125 0 0 93 0 94 62 0 63 0 0-94 0-93 125 0 125 0 0 125 0 125 31 0 31 0 0-32 0-31 31 0 32 0 0 63 0 62-32 0-31 0 0 31 0 32-31 0-31 0 0 125 0 125-63 0-62 0 0-32 0-31-32 0-31 0 0 31 0 32-31 0-31 0 0 31 0 31-63 0-62 0 0-31m125-125l0-31 31 0 31 0 0-32 0-31 31 0 32 0 0-31 0-31 31 0 31 0 0-32 0-31 31 0 32 0 0-31 0-31-32 0-31 0 0 31 0 31-31 0-31 0 0 31 0 32-32 0-31 0 0 31 0 31-31 0-31 0 0 31 0 32-63 0-62 0 0-32 0-31-32 0-31 0 0-31 0-31-31 0-31 0 0-32 0-31-32 0-31 0 0-31 0-31-31 0-31 0 0 31 0 31 31 0 31 0 0 31 0 32 31 0 32 0 0 31 0 31 31 0 31 0 0 31 0 32 31 0 32 0 0 31 0 31 62 0 63 0 0-31" horiz-adv-x="1000" />

<glyph glyph-name="hourglass" unicode="&#xe846;" d="M125 756l0-31 375 0 375 0 0 31 0 32-375 0-375 0 0-32m63-156l0-62 31 0 31 0 0-32 0-31 31 0 32 0 0-31 0-31 31 0 31 0 0-32 0-31 31 0 32 0 0-31 0-31-32 0-31 0 0-32 0-31-31 0-31 0 0-31 0-31-32 0-31 0 0-32 0-31-31 0-31 0 0-62 0-63 312 0 313 0 0 63 0 62-32 0-31 0 0 31 0 32-31 0-31 0 0 31 0 31-32 0-31 0 0 31 0 32-31 0-31 0 0 31 0 31 31 0 31 0 0 31 0 32 31 0 32 0 0 31 0 31 31 0 31 0 0 31 0 32 31 0 32 0 0 62 0 63-313 0-312 0 0-63m-63-719l0-31 375 0 375 0 0 31 0 31-375 0-375 0 0-31" horiz-adv-x="1000" />

<glyph glyph-name="in" unicode="&#xe847;" d="M625 756l0-31-94 0-93 0 0-156 0-156-32 0-31 0 0 31 0 31-31 0-31 0 0 31 0 32-32 0-31 0 0-63 0-62-125 0-125 0 0-63 0-62 125 0 125 0 0-63 0-62 31 0 32 0 0 31 0 31 31 0 31 0 0 31 0 32 31 0 32 0 0-157 0-156 93 0 94 0 0-31 0-32 188 0 187 0 0 438 0 438-187 0-188 0 0-32m0-406l0-312-62 0-63 0 0 312 0 313 63 0 62 0 0-313" horiz-adv-x="1000" />

<glyph glyph-name="key" unicode="&#xe848;" d="M750 694l0-31-31 0-31 0 0-32 0-31-32 0-31 0 0-31 0-31-31 0-31 0 0-32 0-31-32 0-31 0 0-31 0-31-31 0-31 0 0-32 0-31-32 0-31 0 0 31 0 32-94 0-93 0 0-32 0-31-32 0-31 0 0-31 0-31-31 0-31 0 0-32 0-31-32 0-31 0 0-94 0-93 31 0 32 0 0-32 0-31 31 0 31 0 0-31 0-32 31 0 32 0 0-31 0-31 93 0 94 0 0 31 0 31 31 0 32 0 0 32 0 31 31 0 31 0 0 31 0 32 31 0 32 0 0 93 0 94-32 0-31 0 0 31 0 32 31 0 32 0 0 31 0 31 31 0 31 0 0 31 0 32 31 0 32 0 0 31 0 31 31 0 31 0 0 31 0 32 31 0 32 0 0-32 0-31 62 0 63 0 0 63 0 62-32 0-31 0 0 31 0 32-31 0-31 0 0 31 0 31-32 0-31 0 0-31m-250-375l0-31-31 0-31 0 0 31 0 31 31 0 31 0 0-31m-187-63l0-31 31 0 31 0 0-31 0-31 31 0 32 0 0-32 0-31-32 0-31 0 0-31 0-31-31 0-31 0 0-32 0-31-32 0-31 0 0 31 0 32-31 0-31 0 0 31 0 31-32 0-31 0 0 31 0 32 31 0 32 0 0 31 0 31 31 0 31 0 0 31 0 32 31 0 32 0 0-32" horiz-adv-x="1000" />

<glyph glyph-name="king" unicode="&#xe849;" d="M0 538l0-313 63 0 62 0 0-187 0-188 375 0 375 0 0 188 0 187 63 0 62 0 0 313 0 312-62 0-63 0 0-187 0-188-62 0-63 0 0 125 0 125-62 0-63 0 0 63 0 62-125 0-125 0 0-62 0-63-62 0-63 0 0-125 0-125-62 0-63 0 0 188 0 187-62 0-63 0 0-312m375-125l0-63-62 0-63 0 0 63 0 62 63 0 62 0 0-62m375 0l0-63-62 0-63 0 0 63 0 62 63 0 62 0 0-62" horiz-adv-x="1000" />

<glyph glyph-name="knight" unicode="&#xe84a;" d="M250 663l0-63-62 0-63 0 0-62 0-63-62 0-63 0 0-125 0-125 63 0 62 0 0 63 0 62 63 0 62 0 0-125 0-125-125 0-125 0 0-125 0-125 500 0 500 0 0 125 0 125-125 0-125 0 0 63 0 62 63 0 62 0 0 250 0 250-312 0-313 0 0-62m250-125l0-63-62 0-63 0 0 63 0 62 63 0 62 0 0-62" horiz-adv-x="1000" />

<glyph glyph-name="laptop" unicode="&#xe84b;" d="M125 381l0-218-31 0-31 0 0-32 0-31 437 0 438 0 0 31 0 32-32 0-31 0 0 218 0 219-375 0-375 0 0-219m688 0l0-156-313 0-312 0 0 156 0 157 312 0 313 0 0-157" horiz-adv-x="1000" />

<glyph glyph-name="like" unicode="&#xe84c;" d="M438 631l0-31-32 0-31 0 0-31 0-31-31 0-31 0 0-32 0-31-32 0-31 0 0-31 0-31-62 0-63 0 0-157 0-156 63 0 62 0 0-31 0-31 313 0 312 0 0 218 0 219-125 0-125 0 0 94 0 94-94 0-93 0 0-32m125-125l0-93 125 0 125 0 0-157 0-156-250 0-250 0 0 156 0 157 31 0 31 0 0 31 0 31 31 0 32 0 0 31 0 32 31 0 31 0 0 31 0 31 31 0 32 0 0-94" horiz-adv-x="1000" />

<glyph glyph-name="link" unicode="&#xe84d;" d="M625 694l0-31-31 0-31 0 0-32 0-31 31 0 31 0 0 31 0 32 63 0 62 0 0-32 0-31 31 0 32 0 0-31 0-31-32 0-31 0 0-32 0-31-31 0-31 0 0-31 0-31-32 0-31 0 0-32 0-31-31 0-31 0 0-31 0-31-32 0-31 0 0 31 0 31-31 0-31 0 0-31 0-31 31 0 31 0 0-32 0-31 31 0 32 0 0 31 0 32 31 0 31 0 0 31 0 31 31 0 32 0 0 31 0 32 31 0 31 0 0 31 0 31 31 0 32 0 0 31 0 32 31 0 31 0 0 31 0 31-31 0-31 0 0 31 0 32-32 0-31 0 0 31 0 31-62 0-63 0 0-31m-187-188l0-31-32 0-31 0 0-31 0-31-31 0-31 0 0-32 0-31-32 0-31 0 0-31 0-31-31 0-31 0 0-32 0-31-32 0-31 0 0-31 0-31 31 0 32 0 0-32 0-31 31 0 31 0 0-31 0-31 63 0 62 0 0 31 0 31 31 0 32 0 0 31 0 32-32 0-31 0 0-32 0-31-62 0-63 0 0 31 0 32-31 0-31 0 0 31 0 31 31 0 31 0 0 31 0 32 31 0 32 0 0 31 0 31 31 0 31 0 0 31 0 32 31 0 32 0 0 31 0 31 31 0 31 0 0-31 0-31 31 0 32 0 0 31 0 31-32 0-31 0 0 31 0 32-31 0-31 0 0-32" horiz-adv-x="1000" />

<glyph glyph-name="list" unicode="&#xe84e;" d="M125 600l0-62 63 0 62 0 0 62 0 63-62 0-63 0 0-63m188 0l0-62 281 0 281 0 0 62 0 63-281 0-281 0 0-63m-188-250l0-62 63 0 62 0 0 62 0 63-62 0-63 0 0-63m188 0l0-62 281 0 281 0 0 62 0 63-281 0-281 0 0-63m-188-250l0-62 63 0 62 0 0 62 0 63-62 0-63 0 0-63m188 0l0-62 281 0 281 0 0 62 0 63-281 0-281 0 0-63" horiz-adv-x="1000" />

<glyph glyph-name="lock" unicode="&#xe84f;" d="M250 756l0-31-31 0-31 0 0-94 0-93-32 0-31 0 0-313 0-313 375 0 375 0 0 313 0 313-31 0-31 0 0 93 0 94-32 0-31 0 0 31 0 32-250 0-250 0 0-32m500-125l0-93-250 0-250 0 0 93 0 94 250 0 250 0 0-94m63-406l0-250-313 0-312 0 0 250 0 250 312 0 313 0 0-250m-500 94l0-94 62 0 63 0 0-94 0-93 31 0 31 0 0 93 0 94 63 0 62 0 0 94 0 94-156 0-156 0 0-94m250 0l0-31-32 0-31 0 0-32 0-31-31 0-31 0 0 31 0 32-32 0-31 0 0 31 0 31 94 0 94 0 0-31" horiz-adv-x="1000" />

<glyph glyph-name="map" unicode="&#xe850;" d="M188 475l0-312 31 0 31 0 0-32 0-31 31 0 32 0 0-31 0-31 31 0 31 0 0-32 0-31 63 0 62 0 0 31 0 32 31 0 32 0 0 31 0 31 31 0 31 0 0-31 0-31 31 0 32 0 0-32 0-31 62 0 63 0 0 344 0 344-32 0-31 0 0 31 0 31-31 0-31 0 0 31 0 32-63 0-62 0 0-32 0-31-32 0-31 0 0-31 0-31-62 0-63 0 0 31 0 31-31 0-31 0 0 31 0 32-63 0-62 0 0-313m125 219l0-31 31 0 31 0 0-282 0-281-31 0-31 0 0 31 0 32-32 0-31 0 0 281 0 281 31 0 32 0 0-31m375 0l0-31 31 0 31 0 0-313 0-312-31 0-31 0 0 31 0 31-32 0-31 0 0 313 0 312 31 0 32 0 0-31m-125-313l0-281-32 0-31 0 0-31 0-31-31 0-31 0 0 281 0 281 31 0 31 0 0 31 0 32 31 0 32 0 0-282" horiz-adv-x="1000" />

<glyph glyph-name="mark" unicode="&#xe851;" d="M250 350l0-375 31 0 32 0 0 31 0 32 31 0 31 0 0 31 0 31 31 0 32 0 0 31 0 32 62 0 63 0 0-32 0-31 31 0 31 0 0-31 0-31 31 0 32 0 0-32 0-31 31 0 31 0 0 375 0 375-250 0-250 0 0-375m188 219l0-31-32 0-31 0 0 31 0 31 31 0 32 0 0-31m187 0l0-31-31 0-31 0 0 31 0 31 31 0 31 0 0-31m-187-125l0-31 62 0 63 0 0 31 0 31 31 0 31 0 0-62 0-63-125 0-125 0 0 63 0 62 31 0 32 0 0-31" horiz-adv-x="1000" />

<glyph glyph-name="message" unicode="&#xe852;" d="M63 819l0-31-32 0-31 0 0-282 0-281 31 0 32 0 0-31 0-31 62 0 63 0 0-94 0-94 31 0 31 0 0 31 0 32 31 0 32 0 0 31 0 31 31 0 31 0 0 31 0 32 281 0 282 0 0 31 0 31 31 0 31 0 0 281 0 282-31 0-31 0 0 31 0 31-438 0-437 0 0-31" horiz-adv-x="1000" />

<glyph glyph-name="mic" unicode="&#xe853;" d="M438 756l0-31-32 0-31 0 0-187 0-188 31 0 32 0 0-31 0-31 62 0 63 0 0 31 0 31 31 0 31 0 0 188 0 187-31 0-31 0 0 31 0 32-63 0-62 0 0-32m-188-375l0-93 31 0 32 0 0-32 0-31 31 0 31 0 0-31 0-31 31 0 32 0 0-94 0-94-63 0-62 0 0-31 0-32 187 0 188 0 0 32 0 31-63 0-62 0 0 94 0 94 31 0 31 0 0 31 0 31 31 0 32 0 0 31 0 32 31 0 31 0 0 93 0 94-31 0-31 0 0-94 0-93-32 0-31 0 0-32 0-31-125 0-125 0 0 31 0 32-31 0-31 0 0 93 0 94-32 0-31 0 0-94" horiz-adv-x="1000" />

<glyph glyph-name="mobile" unicode="&#xe854;" d="M250 350l0-438 250 0 250 0 0 438 0 438-250 0-250 0 0-438m438 0l0-312-188 0-187 0 0 312 0 313 187 0 188 0 0-313" horiz-adv-x="1000" />

<glyph glyph-name="move" unicode="&#xe855;" d="M438 819l0-31-32 0-31 0 0-32 0-31-31 0-31 0 0-31 0-31 187 0 188 0 0 31 0 31-32 0-31 0 0 31 0 32-31 0-31 0 0 31 0 31-63 0-62 0 0-31m-313-313l0-31-31 0-31 0 0-31 0-31-32 0-31 0 0-63 0-62 31 0 32 0 0-32 0-31 31 0 31 0 0-31 0-31 31 0 32 0 0 187 0 188-32 0-31 0 0-32m688-156l0-187 31 0 31 0 0 31 0 31 31 0 32 0 0 31 0 32 31 0 31 0 0 62 0 63-31 0-31 0 0 31 0 31-32 0-31 0 0 31 0 32-31 0-31 0 0-188m-500-344l0-31 31 0 31 0 0-31 0-32 31 0 32 0 0-31 0-31 62 0 63 0 0 31 0 31 31 0 31 0 0 32 0 31 31 0 32 0 0 31 0 32-188 0-187 0 0-32" horiz-adv-x="1000" />

<glyph glyph-name="mute" unicode="&#xe856;" d="M375 631l0-31-31 0-31 0 0-31 0-31-32 0-31 0 0-32 0-31-31 0-31 0 0-31 0-31-63 0-62 0 0-63 0-62 62 0 63 0 0-32 0-31 31 0 31 0 0-31 0-31 31 0 32 0 0-32 0-31 31 0 31 0 0-31 0-31 63 0 62 0 0 312 0 313-62 0-63 0 0-32m188-187l0-31 31 0 31 0 0-32 0-31 31 0 32 0 0-31 0-31-32 0-31 0 0-32 0-31-31 0-31 0 0-31 0-31 31 0 31 0 0 31 0 31 31 0 32 0 0 31 0 32 31 0 31 0 0-32 0-31 31 0 32 0 0-31 0-31 31 0 31 0 0 31 0 31-31 0-31 0 0 31 0 32-32 0-31 0 0 31 0 31 31 0 32 0 0 31 0 32 31 0 31 0 0 31 0 31-31 0-31 0 0-31 0-31-32 0-31 0 0-32 0-31-31 0-31 0 0 31 0 32-32 0-31 0 0 31 0 31-31 0-31 0 0-31" horiz-adv-x="1000" />

<glyph glyph-name="network" unicode="&#xe857;" d="M313 600l0-125 62 0 63 0 0-62 0-63-157 0-156 0 0-62 0-63-62 0-63 0 0-125 0-125 156 0 157 0 0 125 0 125-63 0-62 0 0 31 0 32 312 0 313 0 0-32 0-31-63 0-62 0 0-125 0-125 156 0 156 0 0 125 0 125-62 0-63 0 0 63 0 62-156 0-156 0 0 63 0 62 62 0 63 0 0 125 0 125-188 0-187 0 0-125m312 0l0-62-125 0-125 0 0 62 0 63 125 0 125 0 0-63m-375-500l0-62-94 0-93 0 0 62 0 63 93 0 94 0 0-63m688 0l0-62-94 0-94 0 0 62 0 63 94 0 94 0 0-63" horiz-adv-x="1000" />

<glyph glyph-name="notification" unicode="&#xe858;" d="M0 350l0-375 500 0 500 0 0 375 0 375-500 0-500 0 0-375m875 281l0-31-31 0-31 0 0-31 0-31-32 0-31 0 0-32 0-31-31 0-31 0 0-31 0-31-32 0-31 0 0-32 0-31-31 0-31 0 0-31 0-31-63 0-62 0 0 31 0 31-32 0-31 0 0 31 0 32-31 0-31 0 0 31 0 31-32 0-31 0 0 31 0 32-31 0-31 0 0 31 0 31-32 0-31 0 0 31 0 32 375 0 375 0 0-32m-750-125l0-31 31 0 32 0 0-31 0-31 31 0 31 0 0-32 0-31 31 0 32 0 0-31 0-31 31 0 31 0 0-32 0-31 31 0 32 0 0-31 0-31 62 0 63 0 0 31 0 31 31 0 31 0 0 31 0 32 31 0 32 0 0 31 0 31 31 0 31 0 0 31 0 32 31 0 32 0 0 31 0 31 31 0 31 0 0 31 0 32 31 0 32 0 0-219 0-219-32 0-31 0 0-31 0-31-375 0-375 0 0 31 0 31-31 0-31 0 0 219 0 219 31 0 31 0 0-32m125-250l0-31-31 0-31 0 0-31 0-31-32 0-31 0 0-32 0-31 31 0 32 0 0 31 0 32 31 0 31 0 0 31 0 31 31 0 32 0 0 31 0 32-32 0-31 0 0-32m438 0l0-31 31 0 31 0 0-31 0-31 31 0 32 0 0-32 0-31 31 0 31 0 0 31 0 32-31 0-31 0 0 31 0 31-32 0-31 0 0 31 0 32-31 0-31 0 0-32" horiz-adv-x="1000" />

<glyph glyph-name="out" unicode="&#xe859;" d="M625 756l0-31-94 0-93 0 0-156 0-156-125 0-125 0 0 62 0 63-32 0-31 0 0-32 0-31-31 0-31 0 0-31 0-31-32 0-31 0 0-63 0-62 31 0 32 0 0-32 0-31 31 0 31 0 0-31 0-31 31 0 32 0 0 62 0 63 125 0 125 0 0-157 0-156 93 0 94 0 0-31 0-32 188 0 187 0 0 438 0 438-187 0-188 0 0-32m0-406l0-312-62 0-63 0 0 312 0 313 63 0 62 0 0-313" horiz-adv-x="1000" />

<glyph glyph-name="pause" unicode="&#xe85a;" d="M250 350l0-312 94 0 94 0 0 312 0 313-94 0-94 0 0-313m313 0l0-312 93 0 94 0 0 312 0 313-94 0-93 0 0-313" horiz-adv-x="1000" />

<glyph glyph-name="pawn" unicode="&#xe85b;" d="M250 538l0-188 63 0 62 0 0-62 0-63-62 0-63 0 0-62 0-63-62 0-63 0 0-62 0-63-62 0-63 0 0-63 0-62 500 0 500 0 0 62 0 63-62 0-63 0 0 63 0 62-62 0-63 0 0 63 0 62-62 0-63 0 0 63 0 62 63 0 62 0 0 188 0 187-250 0-250 0 0-187" horiz-adv-x="1000" />

<glyph glyph-name="pencil" unicode="&#xe85c;" d="M688 756l0-31-32 0-31 0 0-31 0-31 31 0 32 0 0-32 0-31 31 0 31 0 0-31 0-31 31 0 32 0 0-32 0-31 31 0 31 0 0 31 0 32 31 0 32 0 0 62 0 63-32 0-31 0 0 31 0 31-31 0-31 0 0 31 0 32-63 0-62 0 0-32m-188-187l0-31-31 0-31 0 0-32 0-31-32 0-31 0 0-31 0-31-31 0-31 0 0-32 0-31-32 0-31 0 0-31 0-31-31 0-31 0 0-32 0-31-32 0-31 0 0-31 0-31-31 0-31 0 0-125 0-126 125 0 125 0 0 32 0 31 31 0 31 0 0 31 0 32 31 0 32 0 0 31 0 31 31 0 31 0 0 31 0 32 31 0 32 0 0 31 0 31 31 0 31 0 0 31 0 32 31 0 32 0 0 31 0 31 31 0 31 0 0 63 0 62-31 0-31 0 0 31 0 32-32 0-31 0 0 31 0 31-62 0-63 0 0-31m-312-500l0-31 31 0 31 0 0-32 0-31-62 0-63 0 0 63 0 62 31 0 32 0 0-31" horiz-adv-x="1000" />

<glyph glyph-name="pin" unicode="&#xe85d;" d="M313 694l0-31-32 0-31 0 0-32 0-31-31 0-31 0 0-156 0-156 31 0 31 0 0-32 0-31 31 0 32 0 0-31 0-31 31 0 31 0 0-32 0-31 31 0 32 0 0-31 0-31 31 0 31 0 0 31 0 31 31 0 32 0 0 31 0 32 31 0 31 0 0 31 0 31 31 0 32 0 0 31 0 32 31 0 31 0 0 156 0 156-31 0-31 0 0 31 0 32-32 0-31 0 0 31 0 31-156 0-156 0 0-31m312-63l0-31 31 0 32 0 0-156 0-156-32 0-31 0 0-32 0-31-31 0-31 0 0-31 0-31-32 0-31 0 0-32 0-31-31 0-31 0 0 31 0 32-32 0-31 0 0 31 0 31-31 0-31 0 0 31 0 32-32 0-31 0 0 156 0 156 31 0 32 0 0 31 0 32 156 0 156 0 0-32m-250-187l0-94 94 0 94 0 0 94 0 94-94 0-94 0 0-94" horiz-adv-x="1000" />

<glyph glyph-name="play" unicode="&#xe85e;" d="M313 350l0-438 31 0 31 0 0 32 0 31 31 0 32 0 0 31 0 32 31 0 31 0 0 31 0 31 31 0 32 0 0 31 0 32 31 0 31 0 0 31 0 31 31 0 32 0 0 31 0 32 31 0 31 0 0 62 0 63-31 0-31 0 0 31 0 31-32 0-31 0 0 31 0 32-31 0-31 0 0 31 0 31-32 0-31 0 0 31 0 32-31 0-31 0 0 31 0 31-32 0-31 0 0 31 0 32-31 0-31 0 0-438" horiz-adv-x="1000" />

<glyph glyph-name="plus" unicode="&#xe85f;" d="M438 756l0-31-32 0-31 0 0-125 0-125-125 0-125 0 0-31 0-31-31 0-31 0 0-63 0-62 31 0 31 0 0-32 0-31 125 0 125 0 0-125 0-125 31 0 32 0 0-31 0-32 62 0 63 0 0 32 0 31 31 0 31 0 0 125 0 125 125 0 125 0 0 31 0 32 31 0 32 0 0 62 0 63-32 0-31 0 0 31 0 31-125 0-125 0 0 125 0 125-31 0-31 0 0 31 0 32-63 0-62 0 0-32" horiz-adv-x="1000" />

<glyph glyph-name="queen" unicode="&#xe860;" d="M0 475l0-250 63 0 62 0 0-187 0-188 375 0 375 0 0 188 0 187 63 0 62 0 0 250 0 250-62 0-63 0 0-62 0-63-62 0-63 0 0-62 0-63-62 0-63 0 0 125 0 125-125 0-125 0 0-125 0-125-62 0-63 0 0 63 0 62-62 0-63 0 0 63 0 62-62 0-63 0 0-250" horiz-adv-x="1000" />

<glyph glyph-name="question" unicode="&#xe861;" d="M313 819l0-31-32 0-31 0 0-32 0-31-31 0-31 0 0-125 0-125 62 0 63 0 0 94 0 94 31 0 31 0 0 31 0 31 125 0 125 0 0-31 0-31 31 0 32 0 0-125 0-125-32 0-31 0 0-32 0-31-94 0-93 0 0-156 0-156 62 0 63 0 0 93 0 94 62 0 63 0 0 31 0 32 31 0 31 0 0 31 0 31 31 0 32 0 0 188 0 187-32 0-31 0 0 31 0 32-31 0-31 0 0 31 0 31-188 0-187 0 0-31m125-907l0-62 62 0 63 0 0 62 0 63-63 0-62 0 0-63" horiz-adv-x="1000" />

<glyph glyph-name="read" unicode="&#xe862;" d="M63 381l0-406 187 0 188 0 0-31 0-32 31 0 31 0 0-31 0-31 31 0 32 0 0 31 0 31 31 0 31 0 0 32 0 31 188 0 187 0 0 406 0 407-187 0-188 0 0-32 0-31-31 0-31 0 0-31 0-31-32 0-31 0 0 31 0 31-31 0-31 0 0 31 0 32-188 0-187 0 0-407m312 313l0-31 31 0 32 0 0-32 0-31 31 0 31 0 0-281 0-281-187 0-188 0 0 343 0 344 125 0 125 0 0-31m563-313l0-343-188 0-187 0 0 281 0 281 31 0 31 0 0 31 0 32 31 0 32 0 0 31 0 31 125 0 125 0 0-344m-750 125l0-31 125 0 125 0 0 31 0 32-125 0-125 0 0-32m437 0l0-31 125 0 125 0 0 31 0 32-125 0-125 0 0-32m-437-125l0-31 125 0 125 0 0 31 0 32-125 0-125 0 0-32m437 0l0-31 125 0 125 0 0 31 0 32-125 0-125 0 0-32m-437-125l0-31 125 0 125 0 0 31 0 32-125 0-125 0 0-32m437 0l0-31 125 0 125 0 0 31 0 32-125 0-125 0 0-32" horiz-adv-x="1000" />

<glyph glyph-name="reel" unicode="&#xe863;" d="M125 319l0-407 375 0 375 0 0 407 0 406-375 0-375 0 0-406m688 0l0-344-313 0-312 0 0 344 0 344 312 0 313 0 0-344m-563 250l0-31 31 0 32 0 0 31 0 31-32 0-31 0 0-31m438 0l0-31 31 0 31 0 0 31 0 31-31 0-31 0 0-31m-438-125l0-31 31 0 32 0 0 31 0 31-32 0-31 0 0-31m438 0l0-31 31 0 31 0 0 31 0 31-31 0-31 0 0-31m-438-125l0-31 31 0 32 0 0 31 0 31-32 0-31 0 0-31m438 0l0-31 31 0 31 0 0 31 0 31-31 0-31 0 0-31m-438-125l0-31 31 0 32 0 0 31 0 31-32 0-31 0 0-31m438 0l0-31 31 0 31 0 0 31 0 31-31 0-31 0 0-31m-438-125l0-31 31 0 32 0 0 31 0 31-32 0-31 0 0-31m438 0l0-31 31 0 31 0 0 31 0 31-31 0-31 0 0-31" horiz-adv-x="1000" />
</font>
</defs>
</svg>
