<?xml version="1.0" standalone="no"?>
<!DOCTYPE svg PUBLIC "-//W3C//DTD SVG 1.1//EN" "http://www.w3.org/Graphics/SVG/1.1/DTD/svg11.dtd">
<svg xmlns="http://www.w3.org/2000/svg">
<metadata>Copyright (C) 2021 by original authors @ fontello.com</metadata>
<defs>
<font id="icoji" horiz-adv-x="1000" >
<font-face font-family="icoji" font-weight="400" font-stretch="normal" units-per-em="1000" ascent="850" descent="-150" />
<missing-glyph horiz-adv-x="1000" />
<glyph glyph-name="heart" unicode="&#xe800;" d="M125 756v-31h-31-31v-31-31h-32-31v-188-187h31 32v-32-31h31 31v-31-31h31 32v-32-31h31 31v-31-31h31 32v-32-31h31 31v-31-32h31 32v-31-31h62 63v31 31h31 31v32 31h31 32v31 32h31 31v31 31h31 32v31 32h31 31v31 31h31 32v31 32h31 31v187 188h-31-31v31 31h-32-31v31 32h-94-93v-32-31h-32-31v-31-31h-31-31v-32-31h-63-62v31 32h-32-31v31 31h-31-31v31 32h-94-94z" horiz-adv-x="1000" />

<glyph glyph-name="plus" unicode="&#xe801;" d="M438 756v-31h-32-31v-125-125h-125-125v-31-31h-31-31v-63-62h31 31v-32-31h125 125v-125-125h31 32v-31-32h62 63v32 31h31 31v125 125h125 125v31 32h31 32v62 63h-32-31v31 31h-125-125v125 125h-31-31v31 32h-63-62z" horiz-adv-x="1000" />

<glyph glyph-name="exclaimation" unicode="&#xe802;" d="M438 819v-31h-32-31v-282-281h31 32v-94-93h62 63v93 94h31 31v281 282h-31-31v31 31h-63-62z m0-907v-62h62 63v62 63h-63-62z" horiz-adv-x="1000" />

<glyph glyph-name="mail" unicode="&#xe803;" d="M0 350v-375h500 500v375 375h-500-500z m875 281v-31h-31-31v-31-31h-32-31v-32-31h-31-31v-31-31h-32-31v-32-31h-31-31v-31-31h-63-62v31 31h-32-31v31 32h-31-31v31 31h-32-31v31 32h-31-31v31 31h-32-31v31 32h375 375z m-750-125v-31h31 32v-31-31h31 31v-32-31h31 32v-31-31h31 31v-32-31h31 32v-31-31h62 63v31 31h31 31v31 32h31 32v31 31h31 31v31 32h31 32v31 31h31 31v31 32h31 32v-219-219h-32-31v-31-31h-375-375v31 31h-31-31v219 219h31 31z m125-250v-31h-31-31v-31-31h-32-31v-32-31h31 32v31 32h31 31v31 31h31 32v31 32h-32-31z m438 0v-31h31 31v-31-31h31 32v-32-31h31 31v31 32h-31-31v31 31h-32-31v31 32h-31-31z" horiz-adv-x="1000" />

<glyph glyph-name="cross" unicode="&#xe804;" d="M63 694v-94h31 31v-31-31h31 32v-32-31h31 31v-31-31h31 32v-63-62h-32-31v-32-31h-31-31v-31-31h-32-31v-32-31h-31-31v-94-94h93 94v32 31h31 32v31 32h31 31v31 31h31 32v31 32h62 63v-32-31h31 31v-31-31h31 32v-32-31h31 31v-31-32h94 94v94 94h-32-31v31 32h-31-31v31 31h-32-31v31 32h-31-31v62 63h31 31v31 31h31 32v31 32h31 31v31 31h31 32v94 94h-94-94v-32-31h-31-31v-31-31h-32-31v-32-31h-31-31v-31-31h-63-62v31 31h-32-31v31 32h-31-31v31 31h-32-31v31 32h-94-93z" horiz-adv-x="1000" />

<glyph glyph-name="bell" unicode="&#xe805;" d="M438 819v-31h-32-31v-32-31h-31-31v-62-63h-32-31v-94-93h-31-31v-32-31h-32-31v-94-93h-31-31v-63-62h187 188v-94-94h62 63v94 94h187 188v62 63h-32-31v93 94h-31-31v31 32h-32-31v93 94h-31-31v63 62h-32-31v31 32h-31-31v31 31h-63-62z" horiz-adv-x="1000" />

<glyph glyph-name="notification" unicode="&#xe806;" d="M63 819v-31h-32-31v-282-281h31 32v-31-31h62 63v-94-94h31 31v31 32h31 32v31 31h31 31v31 32h281 282v31 31h31 31v281 282h-31-31v31 31h-438-437z" horiz-adv-x="1000" />

<glyph glyph-name="connect" unicode="&#xe807;" d="M625 756v-31h-62-63v-31-31h-31-31v-32-31h-32-31v-31-31h-31-31v-32-31h-125-125v-125-125h125 125v-31-31h31 31v-32-31h31 32v-31-31h31 31v-32-31h63 62v-31-32h125 125v126 125h-125-125v-32-31h-62-63v31 32h-31-31v31 31h-32-31v31 32h-31-31v62 63h31 31v31 31h31 32v31 32h31 31v31 31h63 62v-31-31h125 125v125 125h-125-125z" horiz-adv-x="1000" />

<glyph glyph-name="trash" unicode="&#xe808;" d="M375 819v-31h-125-125v-32-31h-31-31v-31-31h-32-31v-32-31h500 500v31 32h-31-31v31 31h-32-31v31 32h-125-125v31 31h-125-125z m-312-594v-313h31 31v-31-31h375 375v31 31h31 32v313 313h-63-62v-282-281h-63-62v281 282h-63-62v-282-281h-63-62v281 282h-63-62v-282-281h-63-62v281 282h-63-62z" horiz-adv-x="1000" />

<glyph glyph-name="user" unicode="&#xe809;" d="M375 694v-31h-31-31v-125-125h31 31v-32-31h125 125v31 32h31 32v125 125h-32-31v31 31h-125-125z m-62-500v-31h-63-62v-32-31h-32-31v-125-125h375 375v125 125h-31-31v31 32h-63-62v31 31h-188-187z" horiz-adv-x="1000" />

<glyph glyph-name="search" unicode="&#xe80a;" d="M563 819v-31h-32-31v-32-31h-31-31v-31-31h-32-31v-125-125h31 32v-32-31h-32-31v-31-31h-31-31v-32-31h-32-31v-31-31h-31-31v-32-31h-32-31v-62-63h63 62v31 32h31 32v31 31h31 31v31 32h31 32v31 31h31 31v31 32h31 32v-32-31h125 125v31 32h31 31v31 31h31 32v31 32h31 31v125 125h-31-31v31 31h-32-31v31 32h-31-31v31 31h-125-125z m250-63v-31h31 31v-31-31h31 32v-125-125h-32-31v-32-31h-31-31v-31-31h-125-125v31 31h-32-31v-31-31h-31-31v31 31h31 31v31 32h-31-31v125 125h31 31v31 31h31 32v31 32h125 125z" horiz-adv-x="1000" />

<glyph glyph-name="move" unicode="&#xe80b;" d="M438 819v-31h-32-31v-32-31h-31-31v-31-31h187 188v31 31h-32-31v31 32h-31-31v31 31h-63-62z m-313-313v-31h-31-31v-31-31h-32-31v-63-62h31 32v-32-31h31 31v-31-31h31 32v187 188h-32-31z m688-156v-187h31 31v31 31h31 32v31 32h31 31v62 63h-31-31v31 31h-32-31v31 32h-31-31z m-500-344v-31h31 31v-31-32h31 32v-31-31h62 63v31 31h31 31v32 31h31 32v31 32h-188-187z" horiz-adv-x="1000" />

<glyph glyph-name="key" unicode="&#xe80c;" d="M750 694v-31h-31-31v-32-31h-32-31v-31-31h-31-31v-32-31h-32-31v-31-31h-31-31v-32-31h-32-31v31 32h-94-93v-32-31h-32-31v-31-31h-31-31v-32-31h-32-31v-94-93h31 32v-32-31h31 31v-31-32h31 32v-31-31h93 94v31 31h31 32v32 31h31 31v31 32h31 32v93 94h-32-31v31 32h31 32v31 31h31 31v31 32h31 32v31 31h31 31v31 32h31 32v-32-31h62 63v63 62h-32-31v31 32h-31-31v31 31h-32-31z m-250-375v-31h-31-31v31 31h31 31z m-187-63v-31h31 31v-31-31h31 32v-32-31h-32-31v-31-31h-31-31v-32-31h-32-31v31 32h-31-31v31 31h-32-31v31 32h31 32v31 31h31 31v31 32h31 32z" horiz-adv-x="1000" />

<glyph glyph-name="brick" unicode="&#xe80d;" d="M63 663v-125h93 94v125 125h-94-93z m250 0v-125h156 156v125 125h-156-156z m375-188v-312h125 125v312 313h-125-125z m-625-156v-156h281 281v156 156h-281-281z m0-313v-94h156 156v94 94h-156-156z m375 0v-94h250 250v94 94h-250-250z" horiz-adv-x="1000" />

<glyph glyph-name="question" unicode="&#xe80e;" d="M313 819v-31h-32-31v-32-31h-31-31v-125-125h62 63v94 94h31 31v31 31h125 125v-31-31h31 32v-125-125h-32-31v-32-31h-94-93v-156-156h62 63v93 94h62 63v31 32h31 31v31 31h31 32v188 187h-32-31v31 32h-31-31v31 31h-188-187z m125-907v-62h62 63v62 63h-63-62z" horiz-adv-x="1000" />

<glyph glyph-name="at" unicode="&#xe80f;" d="M313 694v-31h-32-31v-32-31h-31-31v-31-31h-32-31v-219-219h31 32v-31-31h31 31v-32-31h31 32v-31-32h93 94v32 31h-94-93v31 32h-32-31v31 31h-31-31v219 219h31 31v31 31h31 32v31 32h187 188v-32-31h31 31v-31-31h31 32v-219-219h-63-62v219 219h-32-31v-32-31h-31-31v31 32h-63-62v-32-31h-32-31v-31-31h-31-31v-125-125h31 31v-32-31h156 157v-31-31h62 63v31 31h31 31v219 219h-31-31v31 31h-32-31v31 32h-31-31v31 31h-188-187z m250-250v-31h31 31v-125-125h-125-125v125 125h31 32v31 31h62 63z" horiz-adv-x="1000" />

<glyph glyph-name="home" unicode="&#xe810;" d="M438 694v-31h-32-31v-32-31h-31-31v-31-31h-32-31v-32-31h-31-31v-31-31h-32-31v-32-31h-31-31v-62-63h31 31v31 32h31 32v-125-125h125 125v93 94h62 63v-94-93h125 125v125 125h31 31v-32-31h31 32v63 62h-32-31v31 32h-31-31v125 125h-63-62v-32-31h-32-31v31 32h-31-31v31 31h-63-62z m125-125v-31h31 31v-32-31h31 32v-31-31h31 31v-32-31h31 32v-31-31h-32-31v31 31h-31-31v31 32h-32-31v31 31h-31-31v31 32h-63-62v-32-31h-32-31v-31-31h-31-31v-32-31h-32-31v-31-31h-31-31v31 31h31 31v31 32h31 32v31 31h31 31v31 32h31 32v31 31h62 63z" horiz-adv-x="1000" />

<glyph glyph-name="arrow-down" unicode="&#xe811;" d="M313 506v-156h-94-94v-31-31h31 32v-32-31h31 31v-31-31h31 32v-32-31h31 31v-31-31h31 32v-32-31h62 63v31 32h31 31v31 31h31 32v31 32h31 31v31 31h31 32v31 32h31 31v31 31h-94-93v156 157h-188-187z" horiz-adv-x="1000" />

<glyph glyph-name="download" unicode="&#xe812;" d="M313 631v-156h-94-94v-31-31h31 32v-32-31h31 31v-31-31h31 32v-32-31h31 31v-31-31h31 32v-32-31h62 63v31 32h31 31v31 31h31 32v31 32h31 31v31 31h31 32v31 32h31 31v31 31h-94-93v156 157h-188-187z m-188-656v-63h375 375v63 63h-375-375z" horiz-adv-x="1000" />

<glyph glyph-name="tick" unicode="&#xe813;" d="M813 569v-31h-32-31v-32-31h-31-31v-31-31h-32-31v-32-31h-31-31v-31-31h-32-31v-32-31h-31-31v-31-31h-32-31v31 31h-31-31v31 32h-32-31v31 31h-31-31v31 32h-63-62v-63-62h31 31v-32-31h31 32v-31-31h31 31v-32-31h31 32v-31-31h93 94v31 31h31 32v31 32h31 31v31 31h31 32v31 32h31 31v31 31h31 32v31 32h31 31v31 31h31 32v63 62h-63-62z" horiz-adv-x="1000" />

<glyph glyph-name="bars" unicode="&#xe814;" d="M188 506v-31h312 313v31 32h-313-312z m0-187v-31h312 313v31 31h-313-312z m0-188v-31h312 313v31 32h-313-312z" horiz-adv-x="1000" />

<glyph glyph-name="folder" unicode="&#xe815;" d="M125 288v-313h375 375v250 250h-187-188v63 62h-187-188z m313 218v-31h-125-125v31 32h125 125z" horiz-adv-x="1000" />

<glyph glyph-name="file" unicode="&#xe816;" d="M188 319v-407h312 313v344 344h-32-31v31 32h-31-31v31 31h-250-250z m375 250v-94h93 94v-250-250h-250-250v344 344h156 157z m125 62v-31h31 31v-31-31h-62-63v62 63h31 32z m-375-125v-31h93 94v31 32h-94-93z m0-125v-31h187 188v31 32h-188-187z m0-125v-31h187 188v31 32h-188-187z m0-125v-31h187 188v31 32h-188-187z" horiz-adv-x="1000" />

<glyph glyph-name="read" unicode="&#xe817;" d="M63 381v-406h187 188v-31-32h31 31v-31-31h31 32v31 31h31 31v32 31h188 187v406 407h-187-188v-32-31h-31-31v-31-31h-32-31v31 31h-31-31v31 32h-188-187z m312 313v-31h31 32v-32-31h31 31v-281-281h-187-188v343 344h125 125z m563-313v-343h-188-187v281 281h31 31v31 32h31 32v31 31h125 125z m-750 125v-31h125 125v31 32h-125-125z m0-125v-31h125 125v31 32h-125-125z m0-125v-31h125 125v31 32h-125-125z m437 250v-31h125 125v31 32h-125-125z m0-125v-31h125 125v31 32h-125-125z m0-125v-31h125 125v31 32h-125-125z" horiz-adv-x="1000" />

<glyph glyph-name="underscore" unicode="&#xe818;" d="M125 38v-63h375 375v63 62h-375-375z" horiz-adv-x="1000" />

<glyph glyph-name="mute" unicode="&#xe819;" d="M375 631v-31h-31-31v-31-31h-32-31v-32-31h-31-31v-31-31h-63-62v-63-62h62 63v-32-31h31 31v-31-31h31 32v-32-31h31 31v-31-31h63 62v312 313h-62-63z m188-187v-31h31 31v-32-31h31 32v-31-31h-32-31v-32-31h-31-31v-31-31h31 31v31 31h31 32v31 32h31 31v-32-31h31 32v-31-31h31 31v31 31h-31-31v31 32h-32-31v31 31h31 32v31 32h31 31v31 31h-31-31v-31-31h-32-31v-32-31h-31-31v31 32h-32-31v31 31h-31-31z" horiz-adv-x="1000" />

<glyph glyph-name="like" unicode="&#xe81a;" d="M438 631v-31h-32-31v-31-31h-31-31v-32-31h-32-31v-31-31h-62-63v-157-156h63 62v-31-31h313 312v218 219h-125-125v94 94h-94-93z m125-125v-93h125 125v-157-156h-250-250v156 157h31 31v31 31h31 32v31 32h31 31v31 31h31 32z" horiz-adv-x="1000" />

<glyph glyph-name="experiment" unicode="&#xe81b;" d="M625 819v-31h31 32v31 31h-32-31z m-187-63v-31h31 31v31 32h-31-31z m-188-125v-31h31 32v-125-125h-32-31v-31-31h-31-31v-32-31h-32-31v-125-125h406 407v125 125h-32-31v31 32h-31-31v31 31h-32-31v125 125h31 32v31 32h-282-281z m438-218v-188h31 31v-31-31h-219-218v31 31h31 31v188 187h156 157z m-188 93v-31h31 32v31 32h-32-31z m-62-125v-31h31 31v31 32h-31-31z m125-125v-31h31 31v31 32h-31-31z" horiz-adv-x="1000" />

<glyph glyph-name="gift" unicode="&#xe81c;" d="M313 819v-31h-32-31v-63-62h31 32v-32-31h-125-125v-125-125h62 63v-219-219h343 344v219 219h63 62v125 125h-125-125v31 32h31 32v62 63h-32-31v31 31h-62-63v-31-31h-31-31v-32-31h-32-31v31 32h-31-31v31 31h-63-62z m125-63v-31h31 31v-62-63h-62-63v31 32h-31-31v62 63h62 63z m312-31v-62h-31-31v-32-31h-63-62v63 62h31 31v31 32h63 62z m-250-250v-62h-187-188v62 63h188 187z m438 0v-62h-188-187v62 63h187 188z m-438-312v-188h-125-125v188 187h125 125z m313 0v-188h-125-125v188 187h125 125z" horiz-adv-x="1000" />

<glyph glyph-name="tag" unicode="&#xe81d;" d="M188 506v-156h31 31v-31-31h31 32v-32-31h31 31v-31-31h31 32v-32-31h31 31v-31-31h31 32v-32-31h31 31v31 32h31 32v31 31h31 31v31 32h31 32v31 31h31 31v31 32h-31-31v31 31h-32-31v31 32h-31-31v31 31h-32-31v31 32h-31-31v31 31h-32-31v31 32h-156-156z m312 63v-31h31 32v-32-31h31 31v-31-31h31 32v-32-31h31 31v-31-31h31 32v-32-31h-32-31v-31-31h-31-31v-32-31h-32-31v-31-31h-31-31v31 31h-32-31v31 32h-31-31v31 31h-32-31v31 32h-31-31v31 31h-32-31v125 125h125 125z m-187-94v-62h62 63v62 63h-63-62z" horiz-adv-x="1000" />

<glyph glyph-name="share" unicode="&#xe81e;" d="M625 725v-62h63 62v-32-31h-31-31v-31-31h-32-31v-32-31h-31-31v-31-31h-32-31v-32-31h31 32v31 32h31 31v31 31h31 32v31 32h31 31v31 31h31 32v-62-63h62 63v156 157h-157-156z m-500-375v-375h375 375v156 157h-31-31v-125-125h-313-312v312 313h125 125v31 31h-157-156z" horiz-adv-x="1000" />

<glyph glyph-name="pencil" unicode="&#xe81f;" d="M688 756v-31h-32-31v-31-31h31 32v-32-31h31 31v-31-31h31 32v-32-31h31 31v31 32h31 32v62 63h-32-31v31 31h-31-31v31 32h-63-62z m-188-187v-31h-31-31v-32-31h-32-31v-31-31h-31-31v-32-31h-32-31v-31-31h-31-31v-32-31h-32-31v-31-31h-31-31v-125-126h125 125v32 31h31 31v31 32h31 32v31 31h31 31v31 32h31 32v31 31h31 31v31 32h31 32v31 31h31 31v63 62h-31-31v31 32h-32-31v31 31h-62-63z m-312-500v-31h31 31v-32-31h-62-63v63 62h31 32z" horiz-adv-x="1000" />

<glyph glyph-name="sound" unicode="&#xe820;" d="M688 694v-31h31 31v-32-31h31 32v-31-31h31 31v-219-219h-31-31v-31-31h-32-31v-32-31h-31-31v-31-32h31 31v32 31h31 32v31 32h31 31v31 31h31 32v219 219h-32-31v31 31h-31-31v31 32h-32-31v31 31h-31-31z m-250-63v-31h-32-31v-31-31h-31-31v-32-31h-32-31v-31-31h-94-93v-94-94h93 94v-31-31h31 32v-32-31h31 31v-31-31h31 32v-32-31h31 31v344 344h-31-31z m187-62v-31h31 32v-32-31h31 31v-156-156h-31-31v-32-31h-32-31v-31-31h31 32v31 31h31 31v31 32h31 32v156 156h-32-31v31 32h-31-31v31 31h-32-31z m-62-125v-31h31 31v-94-94h-31-31v-31-31h31 31v31 31h31 32v94 94h-32-31v31 31h-31-31z" horiz-adv-x="1000" />

<glyph glyph-name="wifi" unicode="&#xe821;" d="M250 631v-31h125 125v-31-31h31 32v-32-31h31 31v-31-31h31 32v-32-31h31 31v-125-125h31 32v125 125h-32-31v31 32h-31-31v31 31h-32-31v31 32h-31-31v31 31h-32-31v31 32h-125-125z m0-125v-31h94 94v-31-31h31 31v-32-31h31 32v-31-31h31 31v-94-94h31 32v94 94h-32-31v31 31h-31-31v31 32h-32-31v31 31h-31-31v31 32h-94-94z m0-125v-31h63 62v-31-31h31 32v-32-31h31 31v-62-63h31 32v63 62h-32-31v31 32h-31-31v31 31h-32-31v31 32h-62-63z m0-218v-63h63 62v63 62h-62-63z" horiz-adv-x="1000" />

<glyph glyph-name="vibrate" unicode="&#xe822;" d="M250 350v-375h250 250v375 375h-250-250z m375 0v-250h-125-125v250 250h125 125z m-500 0v-250h31 32v250 250h-32-31z m688 0v-250h31 31v250 250h-31-31z m-813 0v-125h31 32v125 125h-32-31z m938 0v-125h31 31v125 125h-31-31z" horiz-adv-x="1000" />

<glyph glyph-name="mark" unicode="&#xe823;" d="M250 350v-375h31 32v31 32h31 31v31 31h31 32v31 32h62 63v-32-31h31 31v-31-31h31 32v-32-31h31 31v375 375h-250-250z m188 219v-31h-32-31v31 31h31 32z m187 0v-31h-31-31v31 31h31 31z m-187-125v-31h62 63v31 31h31 31v-62-63h-125-125v63 62h31 32z" horiz-adv-x="1000" />

<glyph glyph-name="adjust" unicode="&#xe824;" d="M125 600v-125h31 32v63 62h31 31v-31-31h31 32v-32-31h31 31v-31-31h31 32v-63-62h-32-31v-32-31h-31-31v-31-31h-32-31v-32-31h-31-31v63 62h-32-31v-125-125h125 125v31 32h-62-63v31 31h31 32v31 32h31 31v31 31h31 32v31 32h62 63v-32-31h31 31v-31-31h31 32v-32-31h31 31v-31-31h-62-63v-32-31h125 125v125 125h-31-31v-62-63h-32-31v31 32h-31-31v31 31h-32-31v31 32h-31-31v62 63h31 31v31 31h31 32v31 32h31 31v31 31h31 32v-62-63h31 31v125 125h-125-125v-31-31h63 62v-32-31h-31-31v-31-31h-32-31v-32-31h-31-31v-31-31h-63-62v31 31h-32-31v31 32h-31-31v31 31h-32-31v31 32h63 62v31 31h-125-125z" horiz-adv-x="1000" />

<glyph glyph-name="bookmark" unicode="&#xe825;" d="M625 756v-31h-31-31v-31-31h-32-31v-32-31h-31-31v-31-31h-32-31v-32-31h-31-31v-31-31h-32-31v-32-31h-31-31v-31-31h-32-31v-32-31h-31-31v-31-31h31 31v-32-31h31 32v-31-31h31 31v-32-31h31 32v31 32h31 31v31 31h31 32v31 32h31 31v31 31h31 32v31 32h31 31v31 31h31 32v31 32h31 31v31 31h-31-31v31 32h-63-62v-32-31h-32-31v-31-31h-31-31v-32-31h-32-31v-31-31h-31-31v-32-31h31 31v31 32h31 32v31 31h31 31v31 32h31 32v31 31h62 63v-31-31h-32-31v-32-31h-31-31v-31-31h-32-31v-32-31h-31-31v-31-31h-32-31v-32-31h-31-31v-31-31h-32-31v31 31h-31-31v31 32h-32-31v31 31h31 32v31 32h31 31v31 31h31 32v31 32h31 31v31 31h31 32v31 32h31 31v31 31h31 32v31 32h31 31v31 31h31 32v-31-31h31 31v-32-31h31 32v-31-31h31 31v-63-62h-31-31v-32-31h-32-31v-31-31h-31-31v-32-31h-32-31v-31-31h-31-31v-32-31h31 31v31 32h31 32v31 31h31 31v31 32h31 32v31 31h31 31v31 32h31 32v62 63h-32-31v31 31h-31-31v31 32h-32-31v31 31h-31-31v31 32h-32-31z" horiz-adv-x="1000" />

<glyph glyph-name="play" unicode="&#xe826;" d="M313 350v-438h31 31v32 31h31 32v31 32h31 31v31 31h31 32v31 32h31 31v31 31h31 32v31 32h31 31v62 63h-31-31v31 31h-32-31v31 32h-31-31v31 31h-32-31v31 32h-31-31v31 31h-32-31v31 32h-31-31z" horiz-adv-x="1000" />

<glyph glyph-name="pause" unicode="&#xe827;" d="M250 350v-312h94 94v312 313h-94-94z m313 0v-312h93 94v312 313h-94-93z" horiz-adv-x="1000" />

<glyph glyph-name="previous" unicode="&#xe828;" d="M188 350v-438h62 63v188 188h31 31v-32-31h31 32v-31-31h31 31v-32-31h31 32v-31-31h31 31v-32-31h31 32v-31-32h31 31v438 438h-31-31v-32-31h-32-31v-31-31h-31-31v-32-31h-32-31v-31-31h-31-31v-32-31h-32-31v-31-31h-31-31v187 188h-63-62z" horiz-adv-x="1000" />

<glyph glyph-name="backward" unicode="&#xe829;" d="M438 694v-31h-32-31v-32-31h-31-31v-31-31h-32-31v-32-31h-31-31v-31-31h-32-31v-63-62h31 32v-32-31h31 31v-31-31h31 32v-32-31h31 31v-31-31h31 32v-32-31h31 31v156 157h31 32v-32-31h31 31v-31-31h31 32v-32-31h31 31v-31-31h31 32v-32-31h31 31v375 375h-31-31v-31-31h-32-31v-32-31h-31-31v-31-31h-32-31v-32-31h-31-31v-31-31h-32-31v156 156h-31-31z" horiz-adv-x="1000" />

<glyph glyph-name="stop" unicode="&#xe82a;" d="M188 350v-312h312 313v312 313h-313-312z" horiz-adv-x="1000" />

<glyph glyph-name="eject" unicode="&#xe82b;" d="M438 631v-31h-32-31v-31-31h-31-31v-32-31h-32-31v-31-31h-31-31v-32-31h-32-31v-31-31h-31-31v-32-31h437 438v31 32h-32-31v31 31h-31-31v31 32h-32-31v31 31h-31-31v31 32h-32-31v31 31h-31-31v31 32h-63-62z m-375-593v-63h437 438v63 62h-438-437z" horiz-adv-x="1000" />

<glyph glyph-name="save" unicode="&#xe82c;" d="M63 350v-438h437 438v313 313h-32-31v31 31h-31-31v31 32h-32-31v31 31h-31-31v31 32h-313-312z m375 281v-93h31 31v93 94h63 62v-125-125h-219-218v125 125h125 125z m375-437v-156h-313-312v156 156h312 313z" horiz-adv-x="1000" />

<glyph glyph-name="in" unicode="&#xe82d;" d="M625 756v-31h-94-93v-156-156h-32-31v31 31h-31-31v31 32h-32-31v-63-62h-125-125v-63-62h125 125v-63-62h31 32v31 31h31 31v31 32h31 32v-157-156h93 94v-31-32h188 187v438 438h-187-188z m0-406v-312h-62-63v312 313h63 62z" horiz-adv-x="1000" />

<glyph glyph-name="ghost" unicode="&#xe82e;" d="M188 819v-31h-63-62v-407-406h-32-31v-63-62h94 94v469 469h281 281v-469-469h63 62v469 469h-62-63v31 31h-281-281z m62-281v-63h63 62v63 62h-62-63z m313 0v-63h62 63v63 62h-63-62z m-188-313v-62h156 157v62 63h-157-156z" horiz-adv-x="1000" />

<glyph glyph-name="rook" unicode="&#xe82f;" d="M0 475v-250h63 62v-62-63h-62-63v-125-125h500 500v125 125h-62-63v63 62h63 62v250 250h-125-125v-125-125h-62-63v125 125h-125-125v-125-125h-62-63v125 125h-125-125z" horiz-adv-x="1000" />

<glyph glyph-name="knight" unicode="&#xe830;" d="M250 663v-63h-62-63v-62-63h-62-63v-125-125h63 62v63 62h63 62v-125-125h-125-125v-125-125h500 500v125 125h-125-125v63 62h63 62v250 250h-312-313z m250-125v-63h-62-63v63 62h63 62z" horiz-adv-x="1000" />

<glyph glyph-name="bishop" unicode="&#xe831;" d="M250 538v-188h-62-63v-62-63h63 62v-62-63h-125-125v-125-125h500 500v125 125h-125-125v63 62h63 62v63 62h-62-63v125 125h-62-63v63 62h-187-188z m375 0v-63h-62-63v63 62h63 62z" horiz-adv-x="1000" />

<glyph glyph-name="queen" unicode="&#xe832;" d="M0 475v-250h63 62v-187-188h375 375v188 187h63 62v250 250h-62-63v-62-63h-62-63v-62-63h-62-63v125 125h-125-125v-125-125h-62-63v63 62h-62-63v63 62h-62-63z" horiz-adv-x="1000" />

<glyph glyph-name="king" unicode="&#xe833;" d="M0 538v-313h63 62v-187-188h375 375v188 187h63 62v313 312h-62-63v-187-188h-62-63v125 125h-62-63v63 62h-125-125v-62-63h-62-63v-125-125h-62-63v188 187h-62-63z m375-125v-63h-62-63v63 62h63 62z m375 0v-63h-62-63v63 62h63 62z" horiz-adv-x="1000" />

<glyph glyph-name="pawn" unicode="&#xe834;" d="M250 538v-188h63 62v-62-63h-62-63v-62-63h-62-63v-62-63h-62-63v-63-62h500 500v62 63h-62-63v63 62h-62-63v63 62h-62-63v63 62h63 62v188 187h-250-250z" horiz-adv-x="1000" />

<glyph glyph-name="upload" unicode="&#xe835;" d="M421 754v-31h-32-31v-32-31h-31-31v-31-31h-32-31v-32-31h-31-31v-31-31h-32-31v-32-31h94 94v-156-156h187 188v156 156h93 94v31 32h-31-31v31 31h-32-31v31 32h-31-31v31 31h-32-31v31 32h-31-31v31 31h-63-62z m-296-779v-63h375 375v63 63h-375-375z" horiz-adv-x="1000" />

<glyph glyph-name="arrow-left" unicode="&#xe836;" d="M438 694v-31h-32-31v-32-31h-31-31v-31-31h-32-31v-32-31h-31-31v-31-31h-32-31v-63-62h31 32v-32-31h31 31v-31-31h31 32v-32-31h31 31v-31-31h31 32v-32-31h31 31v94 94h156 157v187 188h-157-156v93 94h-31-31z" horiz-adv-x="1000" />

<glyph glyph-name="arrow-up" unicode="&#xe837;" d="M438 694v-31h-32-31v-32-31h-31-31v-31-31h-32-31v-32-31h-31-31v-31-31h-32-31v-32-31h94 94v-156-156h187 188v156 156h93 94v31 32h-31-31v31 31h-32-31v31 32h-31-31v31 31h-32-31v31 32h-31-31v31 31h-63-62z" horiz-adv-x="1000" />

<glyph glyph-name="arrow-right" unicode="&#xe838;" d="M500 631v-93h-156-156v-188-187h156 156v-94-94h31 32v31 32h31 31v31 31h31 32v31 32h31 31v31 31h31 32v31 32h31 31v62 63h-31-31v31 31h-32-31v31 32h-31-31v31 31h-32-31v31 32h-31-31v31 31h-32-31z" horiz-adv-x="1000" />

<glyph glyph-name="game" unicode="&#xe839;" d="M563 694v-31h-32-31v-63-62h-250-250v-282-281h188 187v31 32h125 125v-32-31h188 187v281 282h-219-218v62 63h31 31v31 31h-31-31z m375-438v-218h-157-156v31 31h-125-125v-31-31h-156-156v218 219h437 438z m-750 125v-31h-32-31v-31-31h31 32v-32-31h31 31v31 32h31 32v31 31h-32-31v31 32h-31-31z m62-62v-31h-31-31v31 31h31 31z m438 0v-31h31 31v31 31h-31-31z m125 0v-31h31 31v31 31h-31-31z m-438-125v-31h31 32v31 31h-32-31z m188 0v-31h31 31v31 31h-31-31z" horiz-adv-x="1000" />

<glyph glyph-name="dislike" unicode="&#xe83a;" d="M250 631v-31h-62-63v-156-156h63 62v-32-31h31 32v-31-31h31 31v-32-31h31 32v-31-31h93 94v93 94h125 125v219 219h-312-313z m563-187v-156h-125-125v-94-94h-32-31v31 32h-31-31v31 31h-32-31v31 32h-31-31v156 156h250 250z" horiz-adv-x="1000" />

<glyph glyph-name="tool" unicode="&#xe83b;" d="M375 663v-63h63 62v-31-31h31 32v-125-125h-125-125v31 31h-32-31v63 62h-62-63v-94-93h31 32v-32-31h31 31v-31-31h156 157v-32-31h31 31v-31-31h31 32v-32-31h93 94v94 94h-31-31v31 31h-32-31v31 32h-31-31v156 156h-32-31v31 32h-31-31v31 31h-94-94z" horiz-adv-x="1000" />

<glyph glyph-name="list" unicode="&#xe83c;" d="M125 600v-62h63 62v62 63h-62-63z m188 0v-62h281 281v62 63h-281-281z m-188-250v-62h63 62v62 63h-62-63z m188 0v-62h281 281v62 63h-281-281z m-188-250v-62h63 62v62 63h-62-63z m188 0v-62h281 281v62 63h-281-281z" horiz-adv-x="1000" />

<glyph glyph-name="calc" unicode="&#xe83d;" d="M63 350v-438h437 438v438 438h-438-437z m812 0v-375h-375-375v375 375h375 375z m-562 219v-31h-32-31v-32-31h31 32v-31-31h31 31v31 31h31 32v31 32h-32-31v31 31h-31-31z m250-63v-31h93 94v31 32h-94-93z m-313-250v-31h31 32v-31-31h-32-31v-32-31h31 32v31 32h31 31v-32-31h31 32v31 32h-32-31v31 31h31 32v31 32h-32-31v-32-31h-31-31v31 32h-32-31z m313 0v-31h93 94v31 32h-94-93z m0-125v-31h93 94v31 32h-94-93z" horiz-adv-x="1000" />

<glyph glyph-name="camera" unicode="&#xe83e;" d="M313 600v-62h-32-31v31 31h-31-31v-31-31h-32-31v-250-250h375 375v250 250h-94-93v62 63h-188-187z m312-62v-63h94 94v-187-188h-313-312v188 187h93 94v63 62h125 125z m-250-250v-125h125 125v125 125h-125-125z m188 0v-63h-63-62v63 62h62 63z" horiz-adv-x="1000" />

<glyph glyph-name="bluetooth" unicode="&#xe83f;" d="M438 631v-156h-32-31v31 32h-31-31v31 31h-32-31v31 32h-31-31v-32-31h31 31v-31-31h31 32v-32-31h31 31v-31-31h31 32v-63-62h-32-31v-32-31h-31-31v-31-31h-32-31v-32-31h-31-31v-31-31h31 31v31 31h31 32v31 32h31 31v31 31h31 32v-156-157h62 63v32 31h31 31v31 32h31 32v31 31h31 31v31 32h-31-31v31 31h-32-31v31 32h-31-31v62 63h31 31v31 31h31 32v31 32h31 31v31 31h-31-31v31 32h-32-31v31 31h-31-31v31 32h-63-62z m125 63v-31h31 31v-32-31h31 32v-31-31h-32-31v-32-31h-31-31v-31-31h-32-31v156 156h31 32z m0-438v-31h31 31v-31-31h31 32v-32-31h-32-31v-31-31h-31-31v-32-31h-32-31v156 157h31 32z" horiz-adv-x="1000" />

<glyph glyph-name="dollar" unicode="&#xe840;" d="M438 788v-63h-94-94v-31-31h-31-31v-157-156h31 31v-31-31h94 94v-94-94h-125-125v-31-31h31 31v-32-31h94 94v-63-62h62 63v62 63h93 94v31 32h31 32v156 156h-32-31v31 32h-94-93v93 94h125 125v31 32h-32-31v31 31h-94-93v63 62h-63-62z m0-282v-93h-63-62v93 94h62 63z m250-312v-94h-63-62v94 94h62 63z" horiz-adv-x="1000" />

<glyph glyph-name="slide" unicode="&#xe841;" d="M188 350v-250h312 313v250 250h-313-312z m562-31v-156h-250-250v156 156h250 250z" horiz-adv-x="1000" />

<glyph glyph-name="archive" unicode="&#xe842;" d="M188 600v-62h312 313v62 63h-313-312z m62-344v-218h250 250v218 219h-250-250z m313 125v-31h-63-62v31 32h62 63z" horiz-adv-x="1000" />

<glyph glyph-name="crop" unicode="&#xe843;" d="M250 600v-62h-62-63v-32-31h63 62v-187-188h188 187v-62-63h31 32v63 62h62 63v31 32h-63-62v187 188h31 31v31 31h31 32v31 32h-32-31v-32-31h-31-31v-31-31h-188-187v62 63h-32-31z m313-156v-31h31 31v-125-125h-125-125v31 31h-31-31v125 125h125 125z m-63-63v-31h-31-31v-31-31h-32-31v-32-31h31 32v31 32h31 31v31 31h31 32v31 32h-32-31z" horiz-adv-x="1000" />

<glyph glyph-name="copy" unicode="&#xe844;" d="M188 413v-313h62 63v-62-63h250 250v313 312h-63-62v63 62h-250-250z m437 218v-31h-156-156v-219-218h-32-31v250 250h188 187z m125-343v-250h-187-188v250 250h188 187z" horiz-adv-x="1000" />

<glyph glyph-name="cardpay" unicode="&#xe845;" d="M63 350v-312h437 438v312 313h-438-437z m812 219v-31h-375-375v31 31h375 375z m0-313v-156h-375-375v156 157h375 375z m-687-62v-31h62 63v31 31h-63-62z m187 0v-31h63 62v31 31h-62-63z" horiz-adv-x="1000" />

<glyph glyph-name="edit" unicode="&#xe846;" d="M813 819v-31h-32-31v-32-31h31 32v-31-31h31 31v-32-31h31 32v31 32h31 31v31 31h-31-31v31 32h-32-31v31 31h-31-31z m-750-469v-438h375 375v126 125h-32-31v-94-94h-312-313v375 375h94 94v31 32h-125-125z m562 281v-31h-31-31v-31-31h-32-31v-32-31h-31-31v-31-31h-32-31v-32-31h-31-31v-31-31h-32-31v-94-94h94 94v31 32h31 31v31 31h31 32v31 32h31 31v31 31h31 32v31 32h31 31v31 31h31 32v31 32h-32-31v31 31h-31-31v31 32h-32-31z m63-125v-31h-32-31v-31-31h-31-31v-32-31h-32-31v-31-31h-31-31v31 31h31 31v31 32h31 32v31 31h31 31v31 32h31 32z m-313-250v-31h31 32v-31-31h-63-62v62 63h31 31z" horiz-adv-x="1000" />

<glyph glyph-name="exchange" unicode="&#xe847;" d="M625 725v-62h-281-281v-94-94h281 281v-62-63h63 62v31 32h31 32v31 31h31 31v31 32h31 32v31 31h-32-31v31 32h-31-31v31 31h-32-31v31 32h-62-63z m-375-344v-31h-31-31v-31-31h-32-31v-32-31h-31-31v-31-31h31 31v-32-31h31 32v-31-31h31 31v-32-31h63 62v63 62h281 282v94 94h-282-281v62 63h-62-63z" horiz-adv-x="1000" />

<glyph glyph-name="filter" unicode="&#xe848;" d="M188 569v-31h31 31v-32-31h31 32v-31-31h31 31v-125-125h31 32v-32-31h31 31v-31-31h31 32v187 188h31 31v31 31h31 32v31 32h31 31v31 31h-281-281z" horiz-adv-x="1000" />

<glyph glyph-name="graph" unicode="&#xe849;" d="M63 350v-438h437 438v32 31h-407-406v406 407h-31-31z m312-62v-250h63 62v250 250h-62-63z m375-63v-187h63 62v187 188h-62-63z m-187-62v-125h62 63v125 125h-63-62z m-375-32v-93h62 63v93 94h-63-62z" horiz-adv-x="1000" />

<glyph glyph-name="fax" unicode="&#xe84a;" d="M375 350v-438h281 282v438 438h-282-281z m375 313v-63h63 62v-62-63h-219-218v125 125h156 156z m-187-344v-31h-32-31v31 31h31 32z m125 0v-31h-32-31v31 31h31 32z m125 0v-31h-32-31v31 31h31 32z m-250-125v-31h-32-31v31 31h31 32z m125 0v-31h-32-31v31 31h31 32z m125 0v-31h-32-31v31 31h31 32z m-250-125v-31h-32-31v31 31h31 32z m125 0v-31h-32-31v31 31h31 32z m125 0v-31h-32-31v31 31h31 32z m-688 187v-344h94 94v344 344h-94-94z" horiz-adv-x="1000" />

<glyph glyph-name="mic" unicode="&#xe84b;" d="M438 756v-31h-32-31v-187-188h31 32v-31-31h62 63v31 31h31 31v188 187h-31-31v31 32h-63-62z m-188-375v-93h31 32v-32-31h31 31v-31-31h31 32v-94-94h-63-62v-31-32h187 188v32 31h-63-62v94 94h31 31v31 31h31 32v31 32h31 31v93 94h-31-31v-94-93h-32-31v-32-31h-125-125v31 32h-31-31v93 94h-32-31z" horiz-adv-x="1000" />

<glyph glyph-name="glass" unicode="&#xe84c;" d="M125 694v-31h31 32v-32-31h31 31v-31-31h31 32v-32-31h31 31v-31-31h31 32v-157-156h-32-31v-31-31h-31-31v-32-31h187 188v31 32h-32-31v31 31h-31-31v156 157h31 31v31 31h31 32v31 32h31 31v31 31h31 32v31 32h31 31v31 31h-375-375z" horiz-adv-x="1000" />

<glyph glyph-name="hourglass" unicode="&#xe84d;" d="M125 756v-31h375 375v31 32h-375-375z m63-156v-62h31 31v-32-31h31 32v-31-31h31 31v-32-31h31 32v-31-31h-32-31v-32-31h-31-31v-31-31h-32-31v-32-31h-31-31v-62-63h312 313v63 62h-32-31v31 32h-31-31v31 31h-32-31v31 32h-31-31v31 31h31 31v31 32h31 32v31 31h31 31v31 32h31 32v62 63h-313-312z m-63-719v-31h375 375v31 31h-375-375z" horiz-adv-x="1000" />

<glyph glyph-name="board" unicode="&#xe84e;" d="M375 694v-31h-125-125v-157-156h125 125v-219-219h63 62v219 219h125 125v31 32h31 32v31 31h31 31v31 32h-31-31v31 31h-32-31v31 32h-125-125v31 31h-62-63z m375-125v-31h31 32v-32-31h-32-31v-31-31h-281-281v93 94h281 281z" horiz-adv-x="1000" />

<glyph glyph-name="network" unicode="&#xe84f;" d="M313 600v-125h62 63v-62-63h-157-156v-62-63h-62-63v-125-125h156 157v125 125h-63-62v31 32h312 313v-32-31h-63-62v-125-125h156 156v125 125h-62-63v63 62h-156-156v63 62h62 63v125 125h-188-187z m312 0v-62h-125-125v62 63h125 125z m-375-500v-62h-94-93v62 63h93 94z m688 0v-62h-94-94v62 63h94 94z" horiz-adv-x="1000" />

<glyph glyph-name="desktop" unicode="&#xe850;" d="M125 444v-219h156 157v-62-63h-63-62v-31-31h187 188v31 31h-63-62v63 62h156 156v219 219h-375-375z m688 0v-156h-313-312v156 156h312 313z" horiz-adv-x="1000" />

<glyph glyph-name="book" unicode="&#xe851;" d="M188 725v-62h-32-31v-32-31h31 32v-62-63h-32-31v-31-31h31 32v-63-62h-32-31v-32-31h31 32v-62-63h-32-31v-31-31h31 32v-63-63h343 344v438 438h-344-343z m562-375v-375h-250-250v31 32h31 32v31 31h-32-31v63 62h31 32v31 32h-32-31v62 63h31 32v31 31h-32-31v63 62h31 32v31 32h-32-31v31 31h250 250z" horiz-adv-x="1000" />

<glyph glyph-name="wallet" unicode="&#xe852;" d="M313 569v-94h-94-94v-219-218h375 375v250 250h-31-31v31 31h-125-125v31 32h-125-125z m187 0v-31h94 94v-32-31h-157-156v63 62h63 62z m313-313v-156h-313-312v156 157h312 313z m-563 0v-31h31 32v31 32h-32-31z" horiz-adv-x="1000" />

<glyph glyph-name="goggles" unicode="&#xe853;" d="M313 631v-31h-32-31v-31-31h-31-31v-32-31h-32-31v-187-188h156 157v125 125h62 63v-125-125h156 156v188 187h-31-31v31 32h-32-31v31 31h-31-31v31 32h-32-31v-32-31h31 32v-31-31h31 31v-32-31h31 32v-31-31h-313-312v31 31h31 31v31 32h31 32v31 31h31 31v31 32h-31-31z" horiz-adv-x="1000" />

<glyph glyph-name="link" unicode="&#xe854;" d="M625 694v-31h-31-31v-32-31h31 31v31 32h63 62v-32-31h31 32v-31-31h-32-31v-32-31h-31-31v-31-31h-32-31v-32-31h-31-31v-31-31h-32-31v31 31h-31-31v-31-31h31 31v-32-31h31 32v31 32h31 31v31 31h31 32v31 32h31 31v31 31h31 32v31 32h31 31v31 31h-31-31v31 32h-32-31v31 31h-62-63z m-187-188v-31h-32-31v-31-31h-31-31v-32-31h-32-31v-31-31h-31-31v-32-31h-32-31v-31-31h31 32v-32-31h31 31v-31-31h63 62v31 31h31 32v31 32h-32-31v-32-31h-62-63v31 32h-31-31v31 31h31 31v31 32h31 32v31 31h31 31v31 32h31 32v31 31h31 31v-31-31h31 32v31 31h-32-31v31 32h-31-31z" horiz-adv-x="1000" />

<glyph glyph-name="setting" unicode="&#xe855;" d="M625 600v-62h-250-250v-32-31h250 250v-62-63h63 62v63 62h63 62v31 32h-62-63v62 63h-62-63z m-375-312v-63h-62-63v-31-31h63 62v-63-62h63 62v62 63h250 250v31 31h-250-250v63 62h-62-63z" horiz-adv-x="1000" />

<glyph glyph-name="reel" unicode="&#xe856;" d="M125 319v-407h375 375v407 406h-375-375z m688 0v-344h-313-312v344 344h312 313z m-563 250v-31h31 32v31 31h-32-31z m438 0v-31h31 31v31 31h-31-31z m-438-125v-31h31 32v31 31h-32-31z m438 0v-31h31 31v31 31h-31-31z m-438-125v-31h31 32v31 31h-32-31z m438 0v-31h31 31v31 31h-31-31z m-438-125v-31h31 32v31 31h-32-31z m438 0v-31h31 31v31 31h-31-31z m-438-125v-31h31 32v31 31h-32-31z m438 0v-31h31 31v31 31h-31-31z" horiz-adv-x="1000" />

<glyph glyph-name="tea" unicode="&#xe857;" d="M250 694v-94h31 32v94 94h-32-31z m188 0v-94h31 31v94 94h-31-31z m187 0v-94h31 32v94 94h-32-31z m-437-375v-219h31 31v-31-31h219 219v31 31h31 31v31 32h94 94v156 156h-94-94v31 32h-281-281z m687 0v-94h-62-63v94 94h63 62z m-812-375v-32h437 438v32 31h-438-437z" horiz-adv-x="1000" />

<glyph glyph-name="map" unicode="&#xe858;" d="M188 475v-312h31 31v-32-31h31 32v-31-31h31 31v-32-31h63 62v31 32h31 32v31 31h31 31v-31-31h31 32v-32-31h62 63v344 344h-32-31v31 31h-31-31v31 32h-63-62v-32-31h-32-31v-31-31h-62-63v31 31h-31-31v31 32h-63-62z m125 219v-31h31 31v-282-281h-31-31v31 32h-32-31v281 281h31 32z m375 0v-31h31 31v-313-312h-31-31v31 31h-32-31v313 312h31 32z m-125-313v-281h-32-31v-31-31h-31-31v281 281h31 31v31 32h31 32z" horiz-adv-x="1000" />

<glyph glyph-name="mobile" unicode="&#xe859;" d="M250 350v-438h250 250v438 438h-250-250z m438 0v-312h-188-187v312 313h187 188z" horiz-adv-x="1000" />

<glyph glyph-name="message" unicode="&#xe85a;" d="M63 444v-281h125 125v-94-94h31 31v31 32h31 32v31 31h31 31v31 32h219 219v281 281h-438-437z m812 0v-219h-187-188v-31-31h-31-31v-32-31h-32-31v63 62h-125-125v219 219h375 375z m-687 125v-31h312 313v31 31h-313-312z m0-125v-31h312 313v31 31h-313-312z m0-125v-31h156 156v31 31h-156-156z" horiz-adv-x="1000" />

<glyph glyph-name="refresh" unicode="&#xe85b;" d="M125 444v-281h-63-62v-32-31h31 31v-31-31h32 31v-31-32h62 63v32 31h31 31v31 31h31 32v31 32h-63-62v219 218h125 125v32 31h31 31v31 31h-219-218z m625 250v-31h-31-31v-31-32h-32-31v-31-31h62 63v-219-219h-125-125v-31-31h-31-32v-31-32h219 219v282 281h62 63v31 31h-31-32v32 31h-31-31v31 31h-63-62z" horiz-adv-x="1000" />

<glyph glyph-name="tablet" unicode="&#xe85c;" d="M188 350v-375h312 313v375 375h-313-312z m562 31v-281h-250-250v281 282h250 250z" horiz-adv-x="1000" />

<glyph glyph-name="laptop" unicode="&#xe85d;" d="M125 381v-218h-31-31v-32-31h437 438v31 32h-32-31v218 219h-375-375z m688 0v-156h-313-312v156 157h312 313z" horiz-adv-x="1000" />

<glyph glyph-name="toolbox" unicode="&#xe85e;" d="M250 600v-62h-62-63v-282-281h375 375v281 282h-62-63v62 63h-250-250z m438-31v-31h-188-187v31 31h187 188z m125-156v-63h-63-62v31 32h-188-187v-32-31h-63-62v63 62h312 313z m-188-94v-31h-125-125v31 31h125 125z m-312-63v-31h187 188v31 32h62 63v-125-125h-313-312v125 125h62 63z" horiz-adv-x="1000" />

<glyph glyph-name="video" unicode="&#xe85f;" d="M63 350v-250h312 313v94 94h31 31v-32-31h31 32v-31-31h31 31v-32-31h31 32v250 250h-32-31v-31-31h-31-31v-32-31h-32-31v-31-31h-31-31v93 94h-313-312z" horiz-adv-x="1000" />

<glyph glyph-name="flag" unicode="&#xe860;" d="M250 819v-31h-31-31v-63-62h31 31v-407-406h63 62v188 187h63 62v31 32h94 94v-32-31h62 63v188 187h-63-62v31 32h-94-94v-32-31h-62-63v31 32h31 32v62 63h-32-31v31 31h-62-63z m438-250v-31h31 31v-125-125h-31-31v31 31h-94-94v-31-31h-62-63v125 125h63 62v31 31h94 94z" horiz-adv-x="1000" />

<glyph glyph-name="pin" unicode="&#xe861;" d="M313 694v-31h-32-31v-32-31h-31-31v-156-156h31 31v-32-31h31 32v-31-31h31 31v-32-31h31 32v-31-31h31 31v31 31h31 32v31 32h31 31v31 31h31 32v31 32h31 31v156 156h-31-31v31 32h-32-31v31 31h-156-156z m312-63v-31h31 32v-156-156h-32-31v-32-31h-31-31v-31-31h-32-31v-32-31h-31-31v31 32h-32-31v31 31h-31-31v31 32h-32-31v156 156h31 32v31 32h156 156z m-250-187v-94h94 94v94 94h-94-94z" horiz-adv-x="1000" />

<glyph glyph-name="bag" unicode="&#xe862;" d="M375 756v-31h-31-31v-94-93h-94-94v-313-313h375 375v313 313h-94-93v93 94h-32-31v31 32h-125-125z m250-125v-93h-125-125v93 94h125 125z m-312-187v-31h-32-31v-32-31h94 94v31 32h-32-31v31 31h125 125v-31-31h-31-31v-32-31h93 94v31 32h-31-31v31 31h62 63v-250-250h-313-312v250 250h62 63z" horiz-adv-x="1000" />

<glyph glyph-name="out" unicode="&#xe863;" d="M625 756v-31h-94-93v-156-156h-125-125v62 63h-32-31v-32-31h-31-31v-31-31h-32-31v-63-62h31 32v-32-31h31 31v-31-31h31 32v62 63h125 125v-157-156h93 94v-31-32h188 187v438 438h-187-188z m0-406v-312h-62-63v312 313h63 62z" horiz-adv-x="1000" />

<glyph glyph-name="facebook" unicode="&#xe864;" d="M438 538v-125h-63-62v-63-62h62 63v-157-156h62 63v156 157h62 63v62 63h-63-62v62 63h93 94v62 63h-156-156z" horiz-adv-x="1000" />

<glyph glyph-name="tumblr" unicode="&#xe865;" d="M438 756v-31h-32-31v-31-31h-31-31v-32-31h-32-31v-62-63h63 62v-219-218h31 32v-32-31h62 63v31 32h62 63v93 94h-63-62v-62-63h-32-31v188 187h63 62v63 62h-62-63v94 94h-31-31z" horiz-adv-x="1000" />

<glyph glyph-name="linkedin" unicode="&#xe866;" d="M188 600v-62h62 63v62 63h-63-62z m0-344v-218h62 63v218 219h-63-62z m187 0v-218h63 62v156 156h94 94v-156-156h62 63v218 219h-219-219z" horiz-adv-x="1000" />

<glyph glyph-name="pinterest" unicode="&#xe867;" d="M125 569v-219h63 62v156 157h219 219v-157-156h-94-94v125 125h-62-63v-344-344h63 62v157 156h156 157v281 282h-344-344z" horiz-adv-x="1000" />

<glyph glyph-name="capture" unicode="&#xe868;" d="M125 350v-312h344 344v312 313h-344-344z m625 0v-250h-281-281v250 250h281 281z m-125 156v-31h31 32v31 32h-32-31z m-312-218v-125h156 156v125 125h-156-156z m250 0v-63h-94-94v63 62h94 94z" horiz-adv-x="1000" />

<glyph glyph-name="youtube" unicode="&#xe869;" d="M125 631v-31h-31-31v-31-31h-32-31v-219-219h31 32v-31-31h31 31v-32-31h375 375v31 32h31 32v31 31h31 31v219 219h-31-31v31 31h-32-31v31 32h-375-375z m375-62v-31h31 32v-32-31h31 31v-31-31h31 32v-32-31h31 31v-31-31h-31-31v-32-31h-32-31v-31-31h-31-31v-32-31h-32-31v-31-31h-62-63v281 281h63 62z" horiz-adv-x="1000" />

<glyph glyph-name="next" unicode="&#xe86a;" d="M250 350v-438h31 32v32 31h31 31v31 32h31 32v31 31h31 31v31 32h31 32v31 31h31 31v31 32h31 32v-188-188h62 63v438 438h-63-62v-188-187h-32-31v31 31h-31-31v31 32h-32-31v31 31h-31-31v31 32h-32-31v31 31h-31-31v31 32h-32-31z" horiz-adv-x="1000" />

<glyph glyph-name="forward" unicode="&#xe86b;" d="M125 350v-375h31 32v31 32h31 31v31 31h31 32v31 32h31 31v31 31h31 32v31 32h31 31v-157-156h31 32v31 32h31 31v31 31h31 32v31 32h31 31v31 31h31 32v31 32h31 31v62 63h-31-31v31 31h-32-31v31 32h-31-31v31 31h-32-31v31 32h-31-31v31 31h-32-31v-156-156h-31-31v31 31h-32-31v31 32h-31-31v31 31h-32-31v31 32h-31-31v31 31h-32-31z" horiz-adv-x="1000" />

<glyph glyph-name="github" unicode="&#xe86c;" d="M188 725v-125h-32-31v-31-31h-31-31v-125-125h31 31v-32-31h63 62v-31-31h63 62v-32-31h-31-31v-31-31h-32-31v31 31h-31-31v31 32h-63-62v-32-31h31 31v-31-31h31 32v-32-31h31 31v-31-32h31 32v-31-31h187 188v125 125h-32-31v31 32h63 62v31 31h63 62v31 32h31 32v125 125h-32-31v31 31h-31-31v125 125h-32-31v-31-31h-31-31v-32-31h-32-31v-31-31h-125-125v31 31h-31-31v31 32h-32-31v31 31h-31-31z" horiz-adv-x="1000" />

<glyph glyph-name="amazon" unicode="&#xe86d;" d="M313 819v-31h-63-62v-32-31h-32-31v-62-63h63 62v31 32h31 32v31 31h125 125v-31-31h31 31v-63-62h-31-31v31 31h-125-125v-31-31h-32-31v-32-31h-31-31v-31-31h-32-31v-94-94h31 32v-31-31h62 63v-32-31h125 125v31 32h62 63v31 31h31 31v-31-31h31 32v-32-31h-32-31v-31-31h-62-63v-32-31h-156-156v31 32h-63-62v31 31h-32-31v31 32h-31-31v31 31h-32-31v-94-93h31 32v-32-31h31 31v-31-32h63 62v-31-31h219 219v31 31h62 63v32 31h31 31v31 32h31 32v-32-31h31 31v125 125h-125-125v250 250h-31-31v31 32h-32-31v31 31h-156-156z m250-375v-31h31 31v-63-62h-31-31v-32-31h-125-125v31 32h-32-31v62 63h31 32v31 31h125 125z" horiz-adv-x="1000" />

<glyph glyph-name="clipboard" unicode="&#xe86e;" d="M438 819v-31h-63-62v-32-31h-63-62v-437-438h312 313v438 437h-63-62v31 32h-63-62v31 31h-63-62z m125-63v-31h31 31v-31-31h-125-125v31 31h31 32v31 32h62 63z m-250-125v-31h187 188v31 32h31 31v-375-376h-250-250v376 375h31 32z m0-125v-31h125 125v31 32h-125-125z m312 0v-31h31 32v31 32h-32-31z m-312-125v-31h93 94v31 32h-94-93z m250 0v-31h62 63v31 32h-63-62z m-250-125v-31h156 156v31 32h-156-156z m0-125v-31h187 188v31 32h-188-187z m0-125v-31h62 63v31 32h-63-62z m187 0v-31h94 94v31 32h-94-94z" horiz-adv-x="1000" />

<glyph glyph-name="calendar" unicode="&#xe86f;" d="M250 694v-31h-62-63v-313-312h344 344v312 313h-63-62v31 31h-32-31v-31-31h-62-63v31 31h-31-31v-31-31h-63-62v31 31h-32-31z m0-125v-31h31 32v31 31h62 63v-31-31h31 31v31 31h63 62v-31-31h31 32v31 31h31 31v-62-63h-281-281v63 62h31 31z m500-313v-156h-281-281v156 157h281 281z m-500 63v-31h31 32v31 31h-32-31z m125 0v-31h31 32v31 31h-32-31z m125 0v-31h31 32v31 31h-32-31z m125 0v-31h31 32v31 31h-32-31z m-375-125v-31h31 32v31 31h-32-31z m125 0v-31h31 32v31 31h-32-31z m125 0v-31h31 32v31 31h-32-31z m125 0v-31h31 32v31 31h-32-31z" horiz-adv-x="1000" />

<glyph glyph-name="contrast" unicode="&#xe870;" d="M313 694v-31h-32-31v-32-31h-31-31v-31-31h-32-31v-188-187h31 32v-32-31h31 31v-31-31h31 32v-32-31h187 188v31 32h31 31v31 31h31 32v31 32h31 31v187 188h-31-31v31 31h-32-31v31 32h-31-31v31 31h-188-187z m375-63v-31h31 31v-31-31h31 32v-188-187h-32-31v-32-31h-31-31v-31-31h-94-94v312 313h94 94z" horiz-adv-x="1000" />

<glyph glyph-name="potion" unicode="&#xe871;" d="M313 788v-63h31 31v-31-31h-31-31v-32-31h-32-31v-94-93h31 32v-250-251h31 31v-31-31h125 125v31 31h31 32v251 250h31 31v93 94h-31-31v31 32h-32-31v31 31h31 32v63 62h-188-187z m125-313v-62h62 63v62 63h31 31v-94-94h-125-125v94 94h31 32z m187-375v-62h-31-31v62 63h31 31z" horiz-adv-x="1000" />

<glyph glyph-name="coupon" unicode="&#xe872;" d="M375 819v-31h-31-31v-32-31h-94-94v-156-156h31 32v-32-31h31 31v-31-31h31 32v-32-31h31 31v-31-31h31 32v-32-31h31 31v-31-31h31 32v-32-31h31 31v-31-32h63 62v32 31h31 32v31 32h31 31v31 31h31 32v31 32h31 31v31 31h-31-31v31 32h-32-31v31 31h-31-31v31 32h-32-31v31 31h-31-31v31 32h-32-31v31 31h-31-31v31 32h-32-31v31 31h-62-63v31 32h31 32v31 31h-32-31z m-62-188v-31h31 31v31 32h63 62v-32-31h31 32v-31-31h31 31v-32-31h31 32v-31-31h31 31v-32-31h31 32v-31-31h31 31v-32-31h31 32v-31-31h-32-31v-32-31h-31-31v-31-31h-32-31v-32-31h-62-63v31 32h-31-31v31 31h-32-31v31 32h-31-31v31 31h-32-31v31 32h-31-31v31 31h-32-31v31 32h-31-31v125 125h62 63z m-63-93v-63h31 32v63 62h-32-31z m125-125v-63h63 62v63 62h-62-63z m188-125v-188h31 31v188 187h-31-31z m125-125v-63h62 63v63 62h-63-62z" horiz-adv-x="1000" />

<glyph glyph-name="music" unicode="&#xe873;" d="M563 694v-31h-63-62v-32-31h-63-62v-156-156h-63-62v-32-31h-32-31v-94-93h94 94v31 31h31 31v219 219h31 32v31 31h62 63v31 32h62 63v-125-125h-63-62v-32-31h-32-31v-94-93h94 94v31 31h31 31v250 250h-94-93z" horiz-adv-x="1000" />

<glyph glyph-name="instagram" unicode="&#xe874;" d="M188 756v-31h-32-31v-31-31h-31-31v-313-312h31 31v-32-31h31 32v-31-32h312 313v32 31h31 31v31 32h31 32v312 313h-32-31v31 31h-31-31v31 32h-313-312z m625-156v-62h-63-62v62 63h62 63z m-188-156v-31h31 32v-125-125h31 31v62 63h63 62v-125-125h-31-31v-32-31h-313-312v31 32h-32-31v125 125h63 62v-63-62h31 32v125 125h31 31v31 31h125 125z m-312-313v-31h31 31v-31-31h125 125v31 31h31 32v31 32h-32-31v-32-31h-125-125v31 32h-31-31z" horiz-adv-x="1000" />

<glyph glyph-name="gun" unicode="&#xe875;" d="M63 444v-94h31 31v-187-188h94 94v94 94h93 94v31 31h31 32v63 62h187 188v94 94h-313-312v-32-31h-32-31v31 32h-94-93z m437-156v-63h-62-63v31 32h31 32v31 31h31 31z" horiz-adv-x="1000" />

<glyph glyph-name="copyright" unicode="&#xe876;" d="M375 694v-31h-62-63v-32-31h-31-31v-62-63h-32-31v-125-125h31 32v-62-63h31 31v-31-31h63 62v-32-31h125 125v31 32h63 62v31 31h31 32v63 62h31 31v125 125h-31-31v63 62h-32-31v31 32h-62-63v31 31h-125-125z m250-63v-31h63 62v-62-63h31 32v-125-125h-32-31v-62-63h-62-63v-31-31h-125-125v31 31h-62-63v63 62h-31-31v125 125h31 31v63 62h63 62v31 32h125 125z m-187-125v-31h-32-31v-125-125h31 32v-31-31h93 94v31 31h-94-93v125 125h93 94v31 32h-94-93z" horiz-adv-x="1000" />

<glyph glyph-name="fruit" unicode="&#xe877;" d="M250 631v-31h-31-31v-31-31h62 63v-32-31h-63-62v-31-31h-32-31v-32-31h-31-31v-125-125h31 31v-31-31h31 32v-32-31h31 31v-31-32h250 250v32 31h31 32v31 32h31 31v31 31h31 32v125 125h-32-31v31 32h-31-31v31 31h-32-31v31 32h-94-93v-32-31h-32-31v31 32h-31-31v31 31h-32-31v31 32h-62-63z m438-187v-31h31 31v-32-31h-31-31v31 32h-32-31v31 31h31 32z" horiz-adv-x="1000" />

<glyph glyph-name="sword" unicode="&#xe878;" d="M0 756v-93h31 32v-32-31h31 31v-31-31h31 32v-32-31h31 31v-31-31h31 32v-32-31h31 31v-31-31h31 32v-32-31h31 31v-31-31h31 32v-32-31h31 31v-31-31h-31-31v-63-63h62 63v32 31h62 63v-31-32h31 31v-31-31h63 62v62 63h-31-31v31 32h-32-31v62 63h31 32v62 63h-63-62v-32-31h-32-31v31 32h-31-31v31 31h-32-31v31 32h-31-31v31 31h-32-31v31 32h-31-31v31 31h-32-31v31 32h-31-31v31 31h-32-31v31 32h-31-31v31 31h-94-94z m188 0v-31h31 31v-31-31h31 32v-32-31h-32-31v31 32h-31-31v31 31h-32-31v31 32h31 32z m687-562v-31h-31-31v-32-31h-32-31v-31-31h-31-31v-32-31h-32-31v31 32h31 32v31 31h31 31v31 32h31 32v31 31h31 31z" horiz-adv-x="1000" />

<glyph glyph-name="hammer" unicode="&#xe879;" d="M375 819v-31h-31-31v-32-31h-32-31v-31-31h-31-31v-32-31h-32-31v-31-31h-31-31v-32-31h-32-31v-62-63h31 32v-31-31h31 31v-32-31h31 32v-31-31h31 31v-32-31h31 32v31 32h31 31v31 31h31 32v31 32h31 31v-32-31h31 32v-31-31h31 31v-32-31h31 32v-31-31h31 31v-32-31h31 32v-31-32h31 31v-31-31h63 62v62 63h-31-31v31 32h-32-31v31 31h-31-31v31 32h-32-31v31 31h-31-31v31 32h-32-31v31 31h-31-31v31 32h31 31v31 31h31 32v31 32h31 31v62 63h-31-31v31 31h-32-31v31 32h-31-31v31 31h-94-94z" horiz-adv-x="1000" />

<glyph glyph-name="dash" unicode="&#xe87a;" d="M125 444v-31h-31-31v-63-62h31 31v-32-31h375 375v31 32h31 32v62 63h-32-31v31 31h-375-375z" horiz-adv-x="1000" />

<glyph glyph-name="command" unicode="&#xe87b;" d="M125 569v-31h31 32v-32-31h31 31v-31-31h31 32v-32-31h-32-31v-31-31h-31-31v-32-31h-32-31v-31-31h63 62v31 31h31 32v31 32h31 31v31 31h31 32v31 32h-32-31v31 31h-31-31v31 32h-32-31v31 31h-62-63z m63-531v-63h343 344v63 62h-344-343z" horiz-adv-x="1000" />

<glyph glyph-name="spade" unicode="&#xe87c;" d="M438 819v-31h-32-31v-32-31h-31-31v-31-31h-32-31v-32-31h-31-31v-31-31h-32-31v-32-31h-31-31v-31-31h-32-31v-125-125h31 32v-32-31h31 31v-31-31h94 94v31 31h31 31v31 32h31 32v31 31h62 63v-31-31h31 31v-32-31h31 32v-31-31h93 94v31 31h31 32v31 32h31 31v125 125h-31-31v31 31h-32-31v31 32h-31-31v31 31h-32-31v31 32h-31-31v31 31h-32-31v31 32h-31-31v31 31h-63-62z m0-750v-31h-32-31v-32-31h-31-31v-31-32h-32-31v-31-31h250 250v31 31h-31-31v32 31h-32-31v31 32h-31-31v31 31h-63-62z" horiz-adv-x="1000" />

<glyph glyph-name="skull" unicode="&#xe87d;" d="M250 819v-31h-31-31v-63-62h-32-31v-63-62h-31-31v-125-125h31 31v-32-31h31 32v-31-31h31 31v-94-94h31 32v-63-62h156 156v62 63h31 32v94 94h31 31v31 31h31 32v63 62h31 31v94 94h-31-31v62 63h-32-31v62 63h-31-31v31 31h-219-219z m125-281v-63h-62-63v63 62h63 62z m313 0v-63h-63-62v63 62h62 63z m-250-219v-31h-32-31v31 31h31 32z m125 0v-31h-32-31v31 31h31 32z m-188-250v-31h31 32v31 31h31 31v-31-31h31 32v31 31h31 31v-31-31h-31-31v-32-31h-32-31v31 32h-31-31v-32-31h-32-31v31 32h-31-31v31 31h31 31z" horiz-adv-x="1000" />

<glyph glyph-name="happy" unicode="&#xe87e;" d="M250 538v-125h63 62v125 125h-62-63z m375 0v-125h63 62v125 125h-62-63z m-437-344v-31h31 31v-32-31h31 32v-31-31h187 188v31 31h31 31v31 32h31 32v31 31h-32-31v-31-31h-31-31v-32-31h-188-187v31 32h-32-31v31 31h-31-31z" horiz-adv-x="1000" />

<glyph glyph-name="sad" unicode="&#xe87f;" d="M250 538v-125h63 62v125 125h-62-63z m375 0v-125h63 62v125 125h-62-63z m-312-344v-31h-32-31v-32-31h-31-31v-31-31h31 31v31 31h31 32v31 32h187 188v-32-31h31 31v-31-31h31 32v31 31h-32-31v31 32h-31-31v31 31h-188-187z" horiz-adv-x="1000" />

<glyph glyph-name="neutral" unicode="&#xe880;" d="M250 538v-125h63 62v125 125h-62-63z m375 0v-125h63 62v125 125h-62-63z m-312-344v-31h187 188v31 31h-188-187z" horiz-adv-x="1000" />

<glyph glyph-name="club" unicode="&#xe881;" d="M375 819v-31h-31-31v-94-94h31 31v-31-31h31 32v-63-62h-63-62v31 31h-32-31v31 32h-94-93v-32-31h-32-31v-125-125h31 32v-31-31h93 94v31 31h31 32v31 32h62 63v-125-125h-32-31v-32-31h-31-31v-31-32h-32-31v-31-31h250 250v31 31h-31-31v32 31h-32-31v31 32h-31-31v125 125h62 63v-32-31h31 31v-31-31h94 94v31 31h31 31v125 125h-31-31v31 32h-94-94v-32-31h-31-31v-31-31h-63-62v62 63h31 31v31 31h31 32v94 94h-32-31v31 31h-125-125z" horiz-adv-x="1000" />

<glyph glyph-name="diamond" unicode="&#xe882;" d="M438 819v-31h-32-31v-63-62h-31-31v-63-62h-32-31v-63-62h-31-31v-63-62h31 31v-63-62h31 32v-63-62h31 31v-63-63h31 32v-31-31h62 63v31 31h31 31v63 63h31 32v62 63h31 31v62 63h31 32v62 63h-32-31v62 63h-31-31v62 63h-32-31v62 63h-31-31v31 31h-63-62z" horiz-adv-x="1000" />

<glyph glyph-name="switch-on" unicode="&#xe883;" d="M0 350v-312h500 500v312 313h-500-500z m938 0v-187h-188-187v187 188h187 188z" horiz-adv-x="1000" />

<glyph glyph-name="switch-off" unicode="&#xe884;" d="M0 350v-312h500 500v312 313h-500-500z m938 0v-250h-438-437v250 250h437 438z m-813 0v-187h188 187v187 188h-187-188z" horiz-adv-x="1000" />

<glyph glyph-name="charge" unicode="&#xe885;" d="M563 819v-31h-32-31v-63-62h-31-31v-32-31h-32-31v-31-31h-31-31v-63-62h-32-31v-32-31h-31-31v-31-31h156 156v-32-31h-31-31v-31-31h-32-31v-32-31h-31-31v-62-63h-32-31v-63-62h31 32v31 31h31 31v32 31h31 32v31 32h31 31v31 31h31 32v31 32h31 31v31 31h31 32v31 32h31 31v31 31h31 32v31 32h-125-125v31 31h31 31v31 32h31 32v31 31h31 31v31 32h31 32v31 31h31 31v31 32h31 32v31 31h-188-187z" horiz-adv-x="1000" />

<glyph glyph-name="car" unicode="&#xe886;" d="M313 694v-31h-63-62v-32-31h-32-31v-31-31h-31-31v-63-62h-32-31v-125-125h31 32v-32-31h31 31v-62-63h31 32v-31-32h62 63v32 31h31 31v63 62h125 125v-62-63h31 32v-31-32h62 63v32 31h31 31v63 62h31 32v31 32h31 31v125 125h-31-31v31 31h-63-62v31 32h-32-31v31 31h-31-31v31 32h-63-62v31 31h-125-125z m312-156v-63h-62-63v63 62h63 62z m-312-344v-31h31 31v-32-31h-31-31v31 32h-63-62v-32-31h-32-31v31 32h31 32v31 31h62 63z m500 0v-31h31 31v-32-31h-31-31v31 32h-63-62v-32-31h-32-31v31 32h31 32v31 31h62 63z" horiz-adv-x="1000" />

<glyph glyph-name="back" unicode="&#xe887;" d="M625 756v-31h-31-31v-31-31h-32-31v-32-31h-31-31v-31-31h-32-31v-32-31h-31-31v-31-31h-32-31v-63-62h31 32v-32-31h31 31v-31-31h31 32v-32-31h31 31v-31-31h31 32v-32-31h31 31v-31-32h31 32v438 438h-32-31z" horiz-adv-x="1000" />

<glyph glyph-name="gt" unicode="&#xe888;" d="M313 600v-62h31 31v-32-31h31 32v-31-31h31 31v-63-62h-31-31v-32-31h-32-31v-31-31h-31-31v-63-62h62 63v31 31h31 31v31 32h31 32v31 31h31 31v31 32h31 32v62 63h-32-31v31 31h-31-31v31 32h-32-31v31 31h-31-31v31 32h-63-62z" horiz-adv-x="1000" />

<glyph glyph-name="lt" unicode="&#xe889;" d="M563 631v-31h-32-31v-31-31h-31-31v-32-31h-32-31v-31-31h-31-31v-63-62h31 31v-32-31h31 32v-31-31h31 31v-32-31h31 32v-31-31h62 63v62 63h-32-31v31 31h-31-31v31 32h-32-31v62 63h31 32v31 31h31 31v31 32h31 32v62 63h-63-62z" horiz-adv-x="1000" />

<glyph glyph-name="sp" unicode="&#xe88a;" d="M438 506v-31h-32-31v-31-31h-31-31v-32-31h-32-31v-31-31h-31-31v-63-62h62 63v31 31h31 31v31 32h31 32v31 31h62 63v-31-31h31 31v-32-31h31 32v-31-31h62 63v62 63h-32-31v31 31h-31-31v31 32h-32-31v31 31h-31-31v31 32h-63-62z" horiz-adv-x="1000" />

<glyph glyph-name="sb" unicode="&#xe88b;" d="M188 475v-62h31 31v-32-31h31 32v-31-31h31 31v-32-31h31 32v-31-31h62 63v31 31h31 31v31 32h31 32v31 31h31 31v31 32h31 32v62 63h-63-62v-32-31h-32-31v-31-31h-31-31v-32-31h-63-62v31 32h-32-31v31 31h-31-31v31 32h-63-62z" horiz-adv-x="1000" />

<glyph glyph-name="health" unicode="&#xe88c;" d="M375 569v-94h-94-93v-125-125h93 94v-94-93h125 125v93 94h94 94v125 125h-94-94v94 94h-125-125z" horiz-adv-x="1000" />

<glyph glyph-name="coin" unicode="&#xe88d;" d="M375 819v-31h-31-31v-32-31h-32-31v-94-93h-31-31v-188-187h31 31v-94-94h31 32v-31-32h31 31v-31-31h125 125v31 31h31 32v32 31h31 31v94 94h31 32v187 188h-32-31v93 94h-31-31v31 32h-32-31v31 31h-125-125z m188-406v-250h31 31v-32-31h-125-125v31 32h31 32v156 156h-32-31v31 32h31 32v31 31h31 31v31 32h31 32z" horiz-adv-x="1000" />

<glyph glyph-name="file-archive" unicode="&#xe88e;" d="M125 350v-438h375 375v313 313h-31-31v31 31h-32-31v31 32h-31-31v31 31h-32-31v31 32h-250-250z m188 344v-31h31 31v31 31h94 94v-125-125h125 125v-250-250h-313-312v375 375h62 63z m-63-63v-31h31 32v-31-31h-32-31v-32-31h31 32v-31-31h-32-31v-32-31h31 32v-31-31h-32-31v-94-94h94 94v94 94h-32-31v31 31h-31-31v31 32h31 31v31 31h-31-31v31 32h31 31v31 31h-31-31v31 32h-32-31z m125-437v-31h-31-31v31 31h31 31z" horiz-adv-x="1000" />

<glyph glyph-name="file-video" unicode="&#xe88f;" d="M125 350v-438h375 375v313 313h-31-31v31 31h-32-31v31 32h-31-31v31 31h-32-31v31 32h-250-250z m438 250v-125h125 125v-250-250h-313-312v375 375h187 188z m-313-406v-156h125 125v156 156h-125-125z m438 125v-31h-32-31v-32-31h-31-31v-31-31h31 31v-32-31h31 32v-31-31h31 31v156 156h-31-31z" horiz-adv-x="1000" />

<glyph glyph-name="file-audio" unicode="&#xe890;" d="M125 350v-438h375 375v313 313h-31-31v31 31h-32-31v31 32h-31-31v31 31h-32-31v31 32h-250-250z m438 250v-125h125 125v-250-250h-313-312v375 375h187 188z m-188-219v-31h-31-31v-31-31h-32-31v-63-62h31 32v-32-31h31 31v-31-31h31 32v187 188h-32-31z m125 0v-31h31 32v-125-125h-32-31v-31-31h31 32v31 31h31 31v125 125h-31-31v31 32h-32-31z" horiz-adv-x="1000" />

<glyph glyph-name="file-code" unicode="&#xe891;" d="M125 350v-438h375 375v313 313h-31-31v31 31h-32-31v31 32h-31-31v31 31h-32-31v31 32h-250-250z m438 250v-125h125 125v-250-250h-313-312v375 375h187 188z m-63-281v-94h-31-31v-94-93h31 31v93 94h31 32v94 94h-32-31z m-187 0v-31h-32-31v-94-94h31 32v-31-31h31 31v31 31h-31-31v94 94h31 31v31 31h-31-31z m375 0v-31h-32-31v-94-94h31 32v-31-31h31 31v31 31h-31-31v94 94h31 31v31 31h-31-31z" horiz-adv-x="1000" />

<glyph glyph-name="file-image" unicode="&#xe892;" d="M125 350v-438h375 375v313 313h-31-31v31 31h-32-31v31 32h-31-31v31 31h-32-31v31 32h-250-250z m438 250v-125h125 125v-250-250h-313-312v375 375h187 188z m-313-187v-63h63 62v63 62h-62-63z m250-94v-94h-31-31v-31-31h-32-31v31 31h-31-31v31 32h-32-31v-125-125h250 250v125 125h-31-31v31 31h-32-31v31 32h-62-63z" horiz-adv-x="1000" />

<glyph glyph-name="twitter" unicode="&#xe893;" d="M250 381v-281h31 32v-31-31h187 188v62 63h-157-156v93 94h156 157v63 62h-157-156v94 94h-62-63z" horiz-adv-x="1000" />

<glyph glyph-name="unlock" unicode="&#xe894;" d="M313 819v-31h-32-31v-32-31h-31-31v-219-218h-32-31v-219-219h344 344v219 219h-250-250v187 188h31 31v31 31h94 94v-31-31h31 31v-94-94h63 62v125 125h-31-31v31 32h-32-31v31 31h-156-156z m437-750v-157h-281-281v157 156h281 281z m-375 62v-31h31 32v-62-63h31 31v63 62h31 32v31 32h-94-94z" horiz-adv-x="1000" />

<glyph glyph-name="lock" unicode="&#xe895;" d="M313 631v-31h-32-31v-31-31h-31-31v-125-125h-32-31v-219-219h344 344v219 219h-32-31v125 125h-31-31v31 31h-32-31v31 32h-156-156z m250-125v-31h31 31v-94-93h-156-156v93 94h31 31v31 32h94 94z m187-437v-157h-281-281v157 156h281 281z m-375 62v-31h31 32v-62-63h31 31v63 62h31 32v31 32h-94-94z" horiz-adv-x="1000" />
</font>
</defs>
</svg>
